<svg xmlns="http://www.w3.org/2000/svg" viewBox="0 0 750 500"><g id="freepik--background-complete--inject-271"><path d="M34.8,299.08l11.74-86.17H57.2S63.71,124.72,69,123s63.92-2.37,64.51,0a18.16,18.16,0,0,1,0,5.92l14.21-16s17.16,3.55,18.93,3,8.88,67.47,8.88,67.47,10.06-4.14,11.84.6,0,53.26,0,53.26S218.77,236,220,241.31s20.89,67.11,20.89,67.11c-49.79-1.65-71-8.41-113.86-17.55C92.53,282.18,55.86,284.36,34.8,299.08Z" style="fill:#e0e0e0"></path><path d="M516.17,323.15s18.89-72.3,19.66-76.28.81-70.32.79-75.62-1-7.3,3.15-11.94,4.09-8.82,10.08-8.06,12.59,5.4,12.59,5.4,8,73.63,10,73,4.88-8,4.88-8-11.24-88.22-7.73-96.18,5.31-17.91,7.73-26.54,36.24-21.89,36.24-21.89,9.29,25.87,11.94,27.2,15.92,20.56,15.92,20.56,1.33,81,4,80.65,4.62-16.3,4.62-16.3V144.71s-1.36-31.84,0-33.83,8-28.52,8-33.83,6.63-8,6.63-8V182.52s13.93,70.32,22.55,71.64,24.55,13.93,24.55,13.93l5.47,19.39c-32.5,3.23-63.1,10.09-91.41,21.33C588.29,320.42,552.23,327.55,516.17,323.15Z" style="fill:#e0e0e0"></path><path d="M469.75,453.74c-41.44-3.35-76.53-6.53-118-9.88-17.42-1.41-35.92-2.55-52.61,1.49-11.48,2.77-11.86,18.89-.52,22.19a121.19,121.19,0,0,0,19.56,3.66c27.24,3.19,54.72,3.46,82.14,3.73,28.24.28,57.33.41,83.61-9.78a1.27,1.27,0,0,0,.49-2,30.34,30.34,0,0,0-14.7-9.4" style="fill:#ebebeb"></path></g><g id="freepik--Floor--inject-271"><path d="M383.67,152.55h-1.32l-3.85,0-14.59-.23-22.71-.4-6.79-.13-3.54-.07-3.65.07-15.5.31h-.23v-.22c0-1.53,0-3.23,0-4.95l.14.21-5.31-2.47.24,0-6.36,4.59-.18.14-.14-.18-3.94-4.83a9.23,9.23,0,0,0-5-3.52,13.78,13.78,0,0,0-6.33-.33,11.9,11.9,0,0,0-3.08.93,10.07,10.07,0,0,0-2.62,1.88c-1.58,1.52-2.6,3.57-4.25,5.23a8.55,8.55,0,0,1-3,1.88,8,8,0,0,1-3.5.38c-2.32-.21-4.59-.68-6.89-1s-4.61-.76-6.94-1.1a61.34,61.34,0,0,1-7.39-1.27,28.8,28.8,0,0,1-6.91-2.68,24.42,24.42,0,0,1-10.22-10.06h0v0L227,122.93l.23.19L217,122.76l.26-.24c0,3.5,0,6.91,0,10.25v.13l-.12.07L214,134.73l-.34.19v-.39q0-8,0-15.19l.21.22-27.91,0,.17-.18a52.19,52.19,0,0,1-1.61,14.86,40.34,40.34,0,0,1-2,5.74,14.45,14.45,0,0,1-3,4.13,28.3,28.3,0,0,1-5.61,4.15c-1.37.79-2.13,1.13-2.13,1.13s.18-.12.53-.31.88-.49,1.56-.9a29.65,29.65,0,0,0,5.52-4.21,14.45,14.45,0,0,0,2.91-4.08,40.19,40.19,0,0,0,2-5.72,51.83,51.83,0,0,0,1.53-14.77v-.18h.18l27.91,0h.22v.22q0,7.25,0,15.19l-.34-.2,3.18-1.77-.12.21c0-3.34,0-6.75,0-10.25v-.25H217l10.25.34h.19l0,.18q1.4,5.72,2.83,11.66v0a23.85,23.85,0,0,0,10,9.8,28.47,28.47,0,0,0,6.8,2.64,62.29,62.29,0,0,0,7.33,1.26q3.51.51,7,1.09c2.3.38,4.58.85,6.84,1.05a7.51,7.51,0,0,0,3.28-.34,8,8,0,0,0,2.77-1.77c1.57-1.56,2.61-3.63,4.25-5.23a10.7,10.7,0,0,1,2.76-2,12.43,12.43,0,0,1,3.22-1,14.39,14.39,0,0,1,6.56.35,9.8,9.8,0,0,1,5.23,3.69l3.92,4.84-.33-.05,6.36-4.59.12-.08.12.06,5.3,2.48.13.06v5.1l-.23-.23,15.51-.27,3.65-.06,3.54.08,6.79.15,22.71.5,14.6.36,3.84.11,1,0Z" style="fill:#263238"></path><path d="M535.6,174.63s-.2-.06-.6-.22l-1.74-.73c-1.53-.65-3.79-1.63-6.67-3-1.43-.7-3-1.48-4.71-2.48a5.38,5.38,0,0,1-1.22-.91,3.9,3.9,0,0,1-.72-1.42,14.5,14.5,0,0,1-.5-3.29A74.89,74.89,0,0,1,521,147l0,.17-2.47-2.12.27-.06-5.63,12.2-.38.83v-.91c0-8.05,0-17.05,0-26.68l.19.23-19.79-3.52h.09L483.71,129l.2-.22c-.67,7.24-1.38,14.84-2.11,22.61l-.23,2.5-.28-2.5c-.51-4.42-1-9.13-1.58-13.89-.18-1.62-.37-3.24-.55-4.83l.26.23h-5.3l.26-.26c0,10,0,19.77,0,29v.18l-.16.06A46.71,46.71,0,0,1,463,164.42c-3.63.8-7.15,2-10.58,3.05-6.85,2.21-13.37,4.46-19.52,6.61L424,177.25l-4.24,1.56a20.51,20.51,0,0,1-4.27,1.06c-2.83.44-5.57.67-8.2.87s-5.14.32-7.54.44c-9.58.42-17.22.5-22.46.55h-6l-1.56,0a5,5,0,0,1-.52,0l.52,0,1.55,0,6-.1c5.25-.09,12.88-.23,22.46-.69,2.39-.12,4.9-.27,7.53-.47s5.35-.45,8.16-.9,5.53-1.62,8.43-2.62l8.93-3.2c6.15-2.17,12.66-4.42,19.52-6.65,3.44-1.08,6.93-2.26,10.63-3.08A46,46,0,0,0,474,161.33l-.17.23c0-9.2,0-18.93,0-29v-.26h5.8l0,.23c.18,1.59.37,3.21.55,4.83.54,4.76,1.07,9.47,1.57,13.9h-.51c.73-7.77,1.44-15.37,2.12-22.61l0-.19.19,0,9.54-1.76h.09L513,130.24l.19,0v.19c0,9.63,0,18.63,0,26.68l-.38-.09,5.67-12.18.1-.21.18.15,2.47,2.12.07.07,0,.1a76,76,0,0,0-1.57,15.46,14.46,14.46,0,0,0,.47,3.23,3.82,3.82,0,0,0,.66,1.34A5,5,0,0,0,522,168c1.66,1,3.25,1.8,4.68,2.51,2.86,1.4,5.1,2.4,6.62,3.08l1.72.77Z" style="fill:#263238"></path><path d="M750,293.43l-1.9-.44-5.55-1.34a132.8,132.8,0,0,0-21.77-2.53A168.91,168.91,0,0,0,686.24,292c-6.65,1.26-13.72,2.83-21.14,4.78s-15.21,4.26-23.36,6.77c-16.3,5-34,11-53.55,15.62a220.45,220.45,0,0,1-30.64,5.2,145,145,0,0,1-32.91-.64c-2.81-.31-5.6-.89-8.4-1.42-1.4-.29-2.79-.64-4.19-1l-2.1-.5-2.09-.58c-5.59-1.48-11.13-3.35-16.69-5.35-11.11-4-22.18-8.79-33.65-13.11a184.68,184.68,0,0,0-35.89-10.19l-2.34-.4c-.78-.13-1.57-.21-2.35-.32l-4.73-.62c-3.18-.25-6.35-.64-9.56-.75-6.4-.41-12.87-.38-19.36-.2s-12.94.73-19.33,1.33-12.72,1.45-19,2.37c-12.54,1.82-24.83,4-36.92,6.1-24.16,4.19-47.65,7.88-70.24,8.19a203.31,203.31,0,0,1-32.88-2.1c-10.58-1.58-20.75-3.67-30.55-5.76-19.61-4.22-37.79-8.53-54.6-11.38s-32.28-4-45.76-2.81a93.07,93.07,0,0,0-18.5,3.44,84.86,84.86,0,0,0-14.6,6.1c-1,.56-2,1.18-3,1.75s-1.92,1.09-2.78,1.71-1.71,1.18-2.53,1.73a28,28,0,0,0-2.31,1.68c-1.44,1.13-2.8,2.14-4,3.13l-3.17,2.76c-1,.81-1.74,1.59-2.43,2.25L19,311.53c-.92.89-1.41,1.33-1.41,1.33s.46-.47,1.38-1.37l1.7-1.68c.69-.67,1.46-1.46,2.42-2.27s2-1.76,3.16-2.79,2.54-2,4-3.16c.71-.58,1.49-1.13,2.31-1.68l2.52-1.75c.86-.62,1.83-1.13,2.78-1.73s2-1.19,3-1.76a85.84,85.84,0,0,1,14.62-6.16A93.63,93.63,0,0,1,74,285c13.52-1.21,29.05-.13,45.86,2.74s35,7.12,54.62,11.32c9.8,2.08,20,4.15,30.52,5.73a203.76,203.76,0,0,0,32.81,2.07c22.55-.32,46-4,70.16-8.21,12.09-2.09,24.39-4.29,36.93-6.11q9.41-1.38,19-2.38c6.4-.6,12.85-1.14,19.36-1.33s13-.21,19.41.2c3.22.11,6.4.5,9.59.76l4.74.62c.79.1,1.58.19,2.36.32l2.35.4a185,185,0,0,1,36,10.22c11.48,4.33,22.55,9.12,33.64,13.12,5.54,2,11.08,3.87,16.65,5.35l2.08.57,2.09.5c1.4.32,2.78.68,4.17,1,2.8.52,5.57,1.1,8.37,1.42a144.09,144.09,0,0,0,32.81.65,218.64,218.64,0,0,0,30.58-5.16c19.51-4.62,37.23-10.59,53.54-15.55,8.16-2.5,16-4.78,23.38-6.74s14.52-3.5,21.18-4.75a168.65,168.65,0,0,1,34.6-2.83,129.92,129.92,0,0,1,21.79,2.63c2.44.58,4.29,1.08,5.54,1.39Z" style="fill:#263238"></path></g><g id="freepik--Plant--inject-271"><path d="M204.19,358.48c0,.15-19.73.26-44.06.26s-44.06-.11-44.06-.26,19.72-.26,44.06-.26S204.19,358.34,204.19,358.48Z" style="fill:#263238"></path><path d="M164.68,211.14V272.3h0a9.47,9.47,0,0,0,9.47-9.47V236.08a7.41,7.41,0,0,1,7.41-7.41h0a7.4,7.4,0,0,1,7.4,7.41v23.21a23.7,23.7,0,0,1-23.7,23.7h-.17v75.72H144.93V328.26h-6.32a20.09,20.09,0,0,1-20.08-19.6l-1-40.32a8.19,8.19,0,0,1,8.19-8.39h0a8.18,8.18,0,0,1,8.19,8.43c-.38,12.71-.89,36.06.29,43.42,1.65,10.29,10.29,7.41,10.29,7.41s-3.35-74.81-4-107.84A12.09,12.09,0,0,1,152.59,199h0A12.09,12.09,0,0,1,164.68,211.14Z" style="fill:#263238"></path><path d="M143.44,212.84a11.21,11.21,0,0,1-4.8,0,11.21,11.21,0,0,1,4.8,0Z" style="fill:#263238"></path><path d="M142.57,218.37a8.69,8.69,0,0,1-4.22,0c0-.15.94-.26,2.11-.26S142.57,218.22,142.57,218.37Z" style="fill:#263238"></path><path d="M167.16,214.58a9.27,9.27,0,0,1-4.36,0,9.27,9.27,0,0,1,4.36,0Z" style="fill:#263238"></path><path d="M167,208.33c0,.14-.72.26-1.6.26s-1.6-.12-1.6-.26.71-.26,1.6-.26S167,208.18,167,208.33Z" style="fill:#263238"></path><path d="M143.14,208.34a8.29,8.29,0,0,1-2.6-1.23,7.85,7.85,0,0,1-2.34-1.69,8.19,8.19,0,0,1,2.6,1.24A7.92,7.92,0,0,1,143.14,208.34Z" style="fill:#263238"></path><path d="M147.7,203.35a8.33,8.33,0,0,1-2-2.07,7.82,7.82,0,0,1-1.57-2.39c.11-.09,1,.83,2,2.06A7.79,7.79,0,0,1,147.7,203.35Z" style="fill:#263238"></path><path d="M153.29,201.78a10,10,0,0,1-.33-3.2,10.24,10.24,0,0,1,.2-3.2,9.66,9.66,0,0,1,.32,3.19A10.17,10.17,0,0,1,153.29,201.78Z" style="fill:#263238"></path><path d="M161.22,197.28a8.52,8.52,0,0,1-1.38,2.69,8.81,8.81,0,0,1-1.82,2.4,8.92,8.92,0,0,1,1.38-2.68A9.42,9.42,0,0,1,161.22,197.28Z" style="fill:#263238"></path><path d="M164.11,202.66c.1.11-.51.81-1.36,1.56s-1.62,1.28-1.72,1.17.52-.8,1.37-1.56S164,202.55,164.11,202.66Z" style="fill:#263238"></path><path d="M144,226.4a12.76,12.76,0,0,1-3.57.18,12.68,12.68,0,0,1-3.56-.33,12.58,12.58,0,0,1,3.57-.19A12,12,0,0,1,144,226.4Z" style="fill:#263238"></path><path d="M170.36,220.7A18.72,18.72,0,0,1,166,221a18.85,18.85,0,0,1-4.37-.26,18.21,18.21,0,0,1,4.37-.26A18.09,18.09,0,0,1,170.36,220.7Z" style="fill:#263238"></path><path d="M166,225.94c0,.14-.65.26-1.46.26s-1.45-.12-1.45-.26.65-.26,1.45-.26S166,225.79,166,225.94Z" style="fill:#263238"></path><path d="M145.62,232.48a14.15,14.15,0,0,1-3.85.26,14.25,14.25,0,0,1-3.86-.26,14.75,14.75,0,0,1,3.86-.26A14.64,14.64,0,0,1,145.62,232.48Z" style="fill:#263238"></path><path d="M148.25,237.1a21.4,21.4,0,0,1-4.66.26,21.46,21.46,0,0,1-4.67-.26,20.73,20.73,0,0,1,4.67-.26A20.68,20.68,0,0,1,148.25,237.1Z" style="fill:#263238"></path><path d="M169.1,234.39a11.43,11.43,0,0,1-3.39.26,11.37,11.37,0,0,1-3.39-.26,11,11,0,0,1,3.39-.26A11,11,0,0,1,169.1,234.39Z" style="fill:#263238"></path><path d="M166.72,239.47c0,.15-.68.26-1.52.26s-1.53-.11-1.53-.26.68-.26,1.53-.26S166.72,239.33,166.72,239.47Z" style="fill:#263238"></path><path d="M144,244.22a8.82,8.82,0,0,1-3,.26,8.73,8.73,0,0,1-3-.26,8.44,8.44,0,0,1,3-.26A8.52,8.52,0,0,1,144,244.22Z" style="fill:#263238"></path><path d="M144.18,248.79c0,.15-1,.26-2.12.26s-2.12-.11-2.12-.26a8.77,8.77,0,0,1,4.24,0Z" style="fill:#263238"></path><path d="M166.55,247.41c0,.14-.88.22-2,.17s-1.94-.2-1.93-.34.88-.22,2-.18S166.56,247.27,166.55,247.41Z" style="fill:#263238"></path><path d="M147.23,255.74a15.11,15.11,0,0,1-4,.26,15.22,15.22,0,0,1-4-.26,15.75,15.75,0,0,1,4-.26A15.64,15.64,0,0,1,147.23,255.74Z" style="fill:#263238"></path><path d="M168.08,257.44a12.6,12.6,0,0,1-3.56.26,12.55,12.55,0,0,1-3.56-.26,12.13,12.13,0,0,1,3.56-.26A12.18,12.18,0,0,1,168.08,257.44Z" style="fill:#263238"></path><path d="M164.18,261.34a.38.38,0,1,1-.44.07A.33.33,0,0,1,164.18,261.34Z" style="fill:#263238"></path><path d="M178.93,236.25a7.67,7.67,0,0,1-3.33-1.61A7.79,7.79,0,0,1,173,232c.12-.1,1.28,1.05,2.91,2.21S179,236.11,178.93,236.25Z" style="fill:#263238"></path><path d="M179.3,234.37a11.22,11.22,0,0,1-2.07-3.68,11,11,0,0,1-1.07-4.09,40.18,40.18,0,0,1,1.55,3.89A36.24,36.24,0,0,1,179.3,234.37Z" style="fill:#263238"></path><path d="M181.86,234.22a32.61,32.61,0,0,1,.07-8.14,15.59,15.59,0,0,1,.23,4.07A16.26,16.26,0,0,1,181.86,234.22Z" style="fill:#263238"></path><path d="M188.93,226.42a12.81,12.81,0,0,1-1.85,3.78,13,13,0,0,1-2.57,3.33,23.61,23.61,0,0,1,2.13-3.6A25.59,25.59,0,0,1,188.93,226.42Z" style="fill:#263238"></path><path d="M192.49,233A11.28,11.28,0,0,1,190,235.4a11.64,11.64,0,0,1-2.82,2,11.24,11.24,0,0,1,2.49-2.37A11.64,11.64,0,0,1,192.49,233Z" style="fill:#263238"></path><path d="M192.85,239.52a8.12,8.12,0,0,1-2.62,1.27,8,8,0,0,1-2.8.78,16.58,16.58,0,0,1,5.42-2Z" style="fill:#263238"></path><path d="M191.81,244.9a3,3,0,0,1-2.07.75,3,3,0,0,1-2.17-.42,12.56,12.56,0,0,1,2.12-.1A11.6,11.6,0,0,1,191.81,244.9Z" style="fill:#263238"></path><path d="M176.55,241.51a19.28,19.28,0,0,1-6.1-1.36,9.72,9.72,0,0,1,3.11.42A9.39,9.39,0,0,1,176.55,241.51Z" style="fill:#263238"></path><path d="M177.22,244.61a9.15,9.15,0,0,1-3-.26,9.28,9.28,0,0,1-2.92-.77,9,9,0,0,1,3,.25A8.65,8.65,0,0,1,177.22,244.61Z" style="fill:#263238"></path><path d="M177.23,247.27c0,.14-.86.44-2,.68a4.47,4.47,0,0,1-2.09.17c0-.14.86-.45,2-.68A4.31,4.31,0,0,1,177.23,247.27Z" style="fill:#263238"></path><path d="M124,264.05a10,10,0,0,1-1.45-2.86,9.8,9.8,0,0,1-1-3.06,19.75,19.75,0,0,1,2.4,5.92Z" style="fill:#263238"></path><path d="M127.67,264.54a21.39,21.39,0,0,1,1.5-6.44,21.39,21.39,0,0,1-1.5,6.44Z" style="fill:#263238"></path><path d="M121,267.26a11.76,11.76,0,0,1-2.87-2,12.15,12.15,0,0,1-2.55-2.4,11.42,11.42,0,0,1,2.87,2A11.86,11.86,0,0,1,121,267.26Z" style="fill:#263238"></path><path d="M120.45,269.29a8.33,8.33,0,0,1-2.92-.17,8.32,8.32,0,0,1-2.84-.68,8.33,8.33,0,0,1,2.92.17A8.32,8.32,0,0,1,120.45,269.29Z" style="fill:#263238"></path><path d="M120.11,273.7a7.18,7.18,0,0,1-2.66-.06,6.77,6.77,0,0,1-2.6-.59,7.06,7.06,0,0,1,2.66.07A7.1,7.1,0,0,1,120.11,273.7Z" style="fill:#263238"></path><path d="M120.28,278.55a4.6,4.6,0,0,1-2.12.24,4.46,4.46,0,0,1-2.12-.28,4.6,4.6,0,0,1,2.12-.24A4.46,4.46,0,0,1,120.28,278.55Z" style="fill:#263238"></path><path d="M134.85,277.81a4.6,4.6,0,0,1-2.12.18,4.68,4.68,0,0,1-2.11-.34,4.5,4.5,0,0,1,2.13-.18C133.92,277.51,134.86,277.66,134.85,277.81Z" style="fill:#263238"></path><path d="M135.53,273.3a9.44,9.44,0,0,1-4.4,0,4.84,4.84,0,0,1,2.2-.25A4.69,4.69,0,0,1,135.53,273.3Z" style="fill:#263238"></path><path d="M136.21,267.43a15.44,15.44,0,0,1-5.09,2.37,15.2,15.2,0,0,1,5.09-2.37Z" style="fill:#263238"></path><path d="M134.55,263.07c.1.11-.71,1-1.8,1.95a6.94,6.94,0,0,1-2.14,1.56c-.1-.11.71-1,1.8-1.95A7.15,7.15,0,0,1,134.55,263.07Z" style="fill:#263238"></path><path d="M145.71,261a4.73,4.73,0,0,1-2.65.6,4.83,4.83,0,0,1-2.69-.45,14.63,14.63,0,0,1,2.67-.07A14.58,14.58,0,0,1,145.71,261Z" style="fill:#263238"></path><path d="M146.66,266.21a11.36,11.36,0,0,1-3.81.81,11,11,0,0,1-3.89-.08,22.84,22.84,0,0,1,3.84-.44A21.62,21.62,0,0,1,146.66,266.21Z" style="fill:#263238"></path><path d="M147.59,270.57a17.34,17.34,0,0,1-4.12.91,16.57,16.57,0,0,1-4.19.39,17.77,17.77,0,0,1,4.11-.91A17.23,17.23,0,0,1,147.59,270.57Z" style="fill:#263238"></path><path d="M166.44,264.34a4.24,4.24,0,0,1-2.05.19c-1.13,0-2-.17-2-.32a4.32,4.32,0,0,1,2-.2C165.53,264.05,166.44,264.19,166.44,264.34Z" style="fill:#263238"></path><path d="M167.07,266.69c0,.14-.69.29-1.56.34s-1.57,0-1.58-.19.69-.29,1.56-.33S167.06,266.55,167.07,266.69Z" style="fill:#263238"></path><path d="M178.06,252.83a10.28,10.28,0,0,1-4-.1,10.51,10.51,0,0,1-3.85-1.14,28.63,28.63,0,0,1,3.93.62A31.29,31.29,0,0,1,178.06,252.83Z" style="fill:#263238"></path><path d="M193.62,250.05a16.52,16.52,0,0,1-5.82.78,8.23,8.23,0,0,1,2.88-.65A8.69,8.69,0,0,1,193.62,250.05Z" style="fill:#263238"></path><path d="M146,280.67a10.81,10.81,0,0,1-3.27-.37,10.72,10.72,0,0,1-3.17-.88,10.44,10.44,0,0,1,3.27.37A10.38,10.38,0,0,1,146,280.67Z" style="fill:#263238"></path><path d="M49.4,262.16c.41,13.49,10.94,24.72,24.73,24.64s24.23-11.38,24.49-24.89c.06-3.22-4.94-3.22-5,0-.21,10.8-8.47,19.8-19.49,19.89s-19.41-8.88-19.73-19.64c-.1-3.21-5.1-3.22-5,0Z" style="fill:#455a64"></path><path d="M75,281.45c-9.61-5.88-10.71-16.93-8.23-26.94.77-3.12-4-4.46-4.82-1.33-3,12.27-1.05,25.5,10.53,32.59,2.75,1.68,5.27-2.64,2.52-4.32Z" style="fill:#455a64"></path><path d="M75.25,285.29c13.72-6.63,16-19.71,13-33.57-.67-3.15-5.49-1.82-4.82,1.33,2.53,11.75.93,22.31-10.68,27.93-2.9,1.4-.36,5.71,2.52,4.31Z" style="fill:#455a64"></path><path d="M76.49,284.55q-.48-12.93.18-25.83c.17-3.22-4.83-3.21-5,0q-.66,12.91-.18,25.83c.11,3.2,5.11,3.22,5,0Z" style="fill:#455a64"></path><path d="M68.69,254.67a4.83,4.83,0,0,0,9.38-.27c.17-.78-1-1.11-1.21-.33a3.57,3.57,0,0,1-7,.27.63.63,0,0,0-1.21.33Z" style="fill:#FF725E"></path><path d="M73.61,256.8A5.43,5.43,0,0,1,71.87,253c0-.8-1.29-.8-1.25,0a6.79,6.79,0,0,0,2.11,4.65c.58.55,1.47-.33.88-.89Z" style="fill:#FF725E"></path><path d="M74.59,257.71c1.13-1.75,2.15-3.62,1.57-5.76a.62.62,0,0,0-1.2.33c.48,1.79-.52,3.35-1.45,4.8-.44.67.64,1.3,1.08.63Z" style="fill:#FF725E"></path><path d="M74.43,257.36q-.12-3.11-.47-6.19c-.09-.79-1.34-.8-1.25,0q.35,3.09.47,6.19c0,.8,1.29.81,1.25,0Z" style="fill:#FF725E"></path><path d="M46.79,259a4,4,0,0,0,7.71-.21c.18-.78-1-1.12-1.2-.33a2.72,2.72,0,0,1-5.31.21.62.62,0,0,0-1.2.33Z" style="fill:#FF725E"></path><path d="M50.92,260.58a4.26,4.26,0,0,1-1.35-2.91c0-.8-1.29-.8-1.25,0A5.53,5.53,0,0,0,50,261.46c.58.56,1.46-.33.88-.88Z" style="fill:#FF725E"></path><path d="M51.72,261.45c.92-1.42,1.73-2.95,1.27-4.68a.63.63,0,0,0-1.21.33c.37,1.38-.42,2.6-1.14,3.72-.44.68.64,1.31,1.08.63Z" style="fill:#FF725E"></path><path d="M51.61,261.11c-.06-1.65-.19-3.29-.38-4.93-.09-.79-1.34-.8-1.25,0,.19,1.64.32,3.28.38,4.93,0,.8,1.29.81,1.25,0Z" style="fill:#FF725E"></path><path d="M92,257.73a4,4,0,0,0,7.71-.22c.18-.78-1-1.11-1.2-.33a2.72,2.72,0,0,1-5.3.22.63.63,0,0,0-1.21.33Z" style="fill:#FF725E"></path><path d="M96.09,259.3a4.23,4.23,0,0,1-1.35-2.9c0-.81-1.29-.81-1.25,0a5.53,5.53,0,0,0,1.72,3.79c.58.55,1.47-.33.88-.89Z" style="fill:#FF725E"></path><path d="M96.89,260.18c.92-1.43,1.74-2.95,1.27-4.69a.63.63,0,0,0-1.21.33c.38,1.39-.42,2.61-1.14,3.72-.43.68.65,1.31,1.08.64Z" style="fill:#FF725E"></path><path d="M96.79,259.84c-.07-1.65-.2-3.3-.38-4.94-.09-.79-1.34-.8-1.25,0,.18,1.64.31,3.29.38,4.94,0,.8,1.28.8,1.25,0Z" style="fill:#FF725E"></path><path d="M667.63,272.88c.33,10.59,8.59,19.4,19.41,19.34s19-8.94,19.21-19.53c0-2.53-3.87-2.53-3.92,0-.16,8.47-6.65,15.53-15.29,15.6s-15.23-7-15.48-15.41c-.08-2.52-4-2.53-3.93,0Z" style="fill:#455a64"></path><path d="M687.72,288c-7.54-4.61-8.4-13.29-6.46-21.14.61-2.45-3.17-3.5-3.78-1-2.38,9.62-.82,20,8.26,25.56,2.16,1.32,4.14-2.07,2-3.38Z" style="fill:#455a64"></path><path d="M687.92,291c10.76-5.2,12.52-15.47,10.18-26.34-.53-2.47-4.31-1.42-3.78,1,2,9.22.73,17.51-8.38,21.91-2.27,1.1-.28,4.49,2,3.39Z" style="fill:#455a64"></path><path d="M688.89,290.44q-.37-10.12.14-20.26c.13-2.52-3.79-2.51-3.92,0q-.51,10.14-.15,20.26c.1,2.52,4,2.53,3.93,0Z" style="fill:#455a64"></path><path d="M682.77,267a3.79,3.79,0,0,0,7.36-.21c.14-.62-.81-.88-1-.26a2.8,2.8,0,0,1-5.46.21.49.49,0,0,0-1,.26Z" style="fill:#FF725E"></path><path d="M686.63,268.68a4.26,4.26,0,0,1-1.36-2.95c0-.63-1-.63-1,0a5.26,5.26,0,0,0,1.65,3.64c.46.44,1.15-.25.69-.69Z" style="fill:#FF725E"></path><path d="M687.4,269.39c.89-1.37,1.68-2.84,1.24-4.52a.49.49,0,0,0-.95.26c.37,1.4-.41,2.63-1.14,3.76-.34.53.51,1,.85.5Z" style="fill:#FF725E"></path><path d="M687.28,269.12c-.07-1.63-.19-3.24-.37-4.86-.08-.62-1.06-.63-1,0,.19,1.62.31,3.23.38,4.86,0,.63,1,.63,1,0Z" style="fill:#FF725E"></path><path d="M665.59,270.41a3.12,3.12,0,0,0,6-.17c.14-.62-.81-.88-.95-.26a2.13,2.13,0,0,1-4.16.16.49.49,0,0,0-.94.27Z" style="fill:#FF725E"></path><path d="M668.83,271.64a3.31,3.31,0,0,1-1.06-2.28c0-.63-1-.63-1,0a4.35,4.35,0,0,0,1.35,3c.45.44,1.15-.25.69-.69Z" style="fill:#FF725E"></path><path d="M669.46,272.33a4.55,4.55,0,0,0,1-3.68.49.49,0,0,0-.94.26,3.69,3.69,0,0,1-.9,2.92c-.34.53.51,1,.85.5Z" style="fill:#FF725E"></path><path d="M669.37,272.06c0-1.29-.15-2.58-.29-3.87-.07-.62-1.06-.63-1,0,.14,1.29.24,2.58.29,3.87,0,.63,1,.63,1,0Z" style="fill:#FF725E"></path><path d="M701,269.4a3.12,3.12,0,0,0,6.05-.16c.14-.62-.81-.88-1-.26a2.13,2.13,0,0,1-4.16.16.49.49,0,0,0-.94.26Z" style="fill:#FF725E"></path><path d="M704.27,270.64a3.31,3.31,0,0,1-1.06-2.28c0-.63-1-.63-1,0a4.35,4.35,0,0,0,1.35,3c.45.44,1.15-.25.69-.69Z" style="fill:#FF725E"></path><path d="M704.9,271.33a4.55,4.55,0,0,0,1-3.68.49.49,0,0,0-.94.26,3.69,3.69,0,0,1-.9,2.92c-.34.53.51,1,.85.5Z" style="fill:#FF725E"></path><path d="M704.81,271.06c0-1.3-.15-2.58-.29-3.87-.07-.62-1.06-.63-1,0,.14,1.29.24,2.57.29,3.87,0,.63,1,.63,1,0Z" style="fill:#FF725E"></path><path d="M603.19,373.12c0,15.27,11.83,28.15,27.33,28.43s27.66-12.3,28.25-27.51c.13-3.22-4.87-3.21-5,0-.48,12.46-10.5,22.86-23.25,22.51s-22.3-10.82-22.33-23.43c0-3.22-5-3.22-5,0Z" style="fill:#455a64"></path><path d="M631.35,396.09c-11-6.93-11.92-20.06-8.77-31.48.85-3.1-4-4.43-4.82-1.33-3.78,13.69-1.91,29,11.07,37.13,2.73,1.71,5.24-2.61,2.52-4.32Z" style="fill:#455a64"></path><path d="M631.65,399.87c6.41-2.9,12.12-7.7,14.83-14.34,3-7.39,2.15-15.7.69-23.33-.61-3.16-5.43-1.82-4.82,1.33,1.25,6.51,2.06,13.73-.5,20.05-2.31,5.7-7.27,9.51-12.73,12-2.92,1.33-.38,5.64,2.53,4.32Z" style="fill:#455a64"></path><path d="M632.84,399.33q-.2-14.81.92-29.54c.24-3.21-4.76-3.19-5,0q-1.11,14.76-.92,29.54c0,3.21,5,3.22,5,0Z" style="fill:#455a64"></path><path d="M625.19,365a5.43,5.43,0,0,0,10.56-.09.63.63,0,0,0-1.21-.33,4.17,4.17,0,0,1-8.14.08.63.63,0,0,0-1.21.34Z" style="fill:#FF725E"></path><path d="M630.59,367.64a6.34,6.34,0,0,1-1.9-4.42.63.63,0,0,0-1.25,0,7.66,7.66,0,0,0,2.27,5.3.62.62,0,0,0,.88-.88Z" style="fill:#FF725E"></path><path d="M631.69,368.58c1.33-1.95,2.53-4,1.94-6.47-.19-.78-1.39-.45-1.2.34.5,2.07-.7,3.86-1.82,5.5-.45.67.63,1.3,1.08.63Z" style="fill:#FF725E"></path><path d="M631.51,368.23q-.06-3.56-.38-7.09c-.07-.8-1.32-.81-1.25,0q.32,3.54.38,7.09a.63.63,0,0,0,1.25,0Z" style="fill:#FF725E"></path><path d="M600,369.36a4.46,4.46,0,0,0,8.66-.06c.19-.78-1-1.12-1.21-.34a3.19,3.19,0,0,1-6.24.07.63.63,0,0,0-1.21.33Z" style="fill:#FF725E"></path><path d="M604.54,371.33a4.87,4.87,0,0,1-1.48-3.43.63.63,0,0,0-1.25,0,6.24,6.24,0,0,0,1.84,4.32.63.63,0,0,0,.89-.89Z" style="fill:#FF725E"></path><path d="M605.43,372.24c1.08-1.58,2-3.27,1.56-5.25-.19-.78-1.39-.45-1.21.33.4,1.62-.56,3-1.43,4.29-.45.67.63,1.3,1.08.63Z" style="fill:#FF725E"></path><path d="M605.3,371.9c0-1.89-.13-3.77-.3-5.65-.07-.8-1.32-.81-1.25,0,.17,1.88.27,3.76.3,5.65a.63.63,0,0,0,1.25,0Z" style="fill:#FF725E"></path><path d="M651.72,369.14a4.46,4.46,0,0,0,8.66-.07.63.63,0,0,0-1.21-.33,3.2,3.2,0,0,1-6.24.06.63.63,0,0,0-1.21.34Z" style="fill:#FF725E"></path><path d="M656.24,371.11a4.93,4.93,0,0,1-1.48-3.43.63.63,0,0,0-1.25,0,6.2,6.2,0,0,0,1.85,4.31.62.62,0,0,0,.88-.88Z" style="fill:#FF725E"></path><path d="M657.14,372c1.08-1.59,2-3.28,1.55-5.26-.19-.78-1.39-.45-1.2.34.39,1.61-.57,3-1.43,4.29-.46.66.63,1.29,1.08.63Z" style="fill:#FF725E"></path><path d="M657,371.67c0-1.89-.13-3.77-.3-5.65-.07-.8-1.32-.8-1.25,0,.17,1.88.27,3.76.3,5.65a.63.63,0,0,0,1.25,0Z" style="fill:#FF725E"></path><path d="M579.47,253.75V314.9h0a9.46,9.46,0,0,0,9.47-9.46V278.69a7.41,7.41,0,0,1,7.41-7.41h0a7.4,7.4,0,0,1,7.4,7.41V301.9a23.7,23.7,0,0,1-23.7,23.7h-.17v75.72H559.72V370.87h-6.31a20.09,20.09,0,0,1-20.09-19.61l-1-40.31a8.19,8.19,0,0,1,8.19-8.39h0a8.18,8.18,0,0,1,8.19,8.43c-.38,12.71-.89,36.06.29,43.42,1.65,10.29,10.29,7.41,10.29,7.41S556,287,555.29,254a12.09,12.09,0,0,1,12.09-12.33h0A12.09,12.09,0,0,1,579.47,253.75Z" style="fill:#263238"></path><path d="M558.23,255.45a11.21,11.21,0,0,1-4.8,0,11.21,11.21,0,0,1,4.8,0Z" style="fill:#263238"></path><path d="M557.36,261a8.69,8.69,0,0,1-4.22,0c0-.15.94-.26,2.11-.26S557.36,260.83,557.36,261Z" style="fill:#263238"></path><path d="M582,257.19a9.27,9.27,0,0,1-4.36,0,9.27,9.27,0,0,1,4.36,0Z" style="fill:#263238"></path><path d="M581.81,250.93c0,.15-.72.26-1.6.26s-1.6-.11-1.6-.26.71-.26,1.6-.26S581.81,250.79,581.81,250.93Z" style="fill:#263238"></path><path d="M557.93,251a8.19,8.19,0,0,1-2.6-1.24A7.89,7.89,0,0,1,553,248a8.19,8.19,0,0,1,2.6,1.24A7.73,7.73,0,0,1,557.93,251Z" style="fill:#263238"></path><path d="M562.49,246c-.11.09-1-.83-2-2.06a7.92,7.92,0,0,1-1.57-2.4c.11-.09,1,.84,2,2.07A7.82,7.82,0,0,1,562.49,246Z" style="fill:#263238"></path><path d="M568.08,244.39a10,10,0,0,1-.33-3.2A10.38,10.38,0,0,1,568,238a9.8,9.8,0,0,1,.32,3.2A10.21,10.21,0,0,1,568.08,244.39Z" style="fill:#263238"></path><path d="M576,239.89a8.52,8.52,0,0,1-1.38,2.69,8.81,8.81,0,0,1-1.82,2.4,8.8,8.8,0,0,1,1.38-2.68A9.2,9.2,0,0,1,576,239.89Z" style="fill:#263238"></path><path d="M578.91,245.27c.09.11-.52.8-1.37,1.56s-1.62,1.28-1.72,1.17.52-.8,1.37-1.56S578.81,245.16,578.91,245.27Z" style="fill:#263238"></path><path d="M558.81,269a12.11,12.11,0,0,1-3.57.19,12.68,12.68,0,0,1-3.56-.33,12.15,12.15,0,0,1,3.57-.19A12.61,12.61,0,0,1,558.81,269Z" style="fill:#263238"></path><path d="M585.15,263.3a36.77,36.77,0,0,1-8.73,0,36.77,36.77,0,0,1,8.73,0Z" style="fill:#263238"></path><path d="M580.79,268.54c0,.15-.65.26-1.46.26s-1.45-.11-1.45-.26.65-.26,1.45-.26S580.79,268.4,580.79,268.54Z" style="fill:#263238"></path><path d="M560.42,275.09a28.78,28.78,0,0,1-7.72,0,28.78,28.78,0,0,1,7.72,0Z" style="fill:#263238"></path><path d="M563,279.71a42,42,0,0,1-9.33,0,42,42,0,0,1,9.33,0Z" style="fill:#263238"></path><path d="M583.89,277a22.23,22.23,0,0,1-6.78,0,22.23,22.23,0,0,1,6.78,0Z" style="fill:#263238"></path><path d="M581.51,282.08c0,.14-.68.26-1.52.26s-1.53-.12-1.53-.26.68-.26,1.53-.26S581.51,281.94,581.51,282.08Z" style="fill:#263238"></path><path d="M558.8,286.83a17,17,0,0,1-5.93,0,16.42,16.42,0,0,1,5.93,0Z" style="fill:#263238"></path><path d="M559,291.4c0,.15-1,.26-2.12.26s-2.12-.11-2.12-.26a8.77,8.77,0,0,1,4.24,0Z" style="fill:#263238"></path><path d="M581.34,290c0,.14-.88.22-2,.17s-1.94-.2-1.93-.34.88-.23,2-.18S581.35,289.87,581.34,290Z" style="fill:#263238"></path><path d="M562,298.35a30.67,30.67,0,0,1-8,0,30.67,30.67,0,0,1,8,0Z" style="fill:#263238"></path><path d="M582.87,300.05a24.5,24.5,0,0,1-7.12,0,24.5,24.5,0,0,1,7.12,0Z" style="fill:#263238"></path><path d="M579,303.94a.38.38,0,0,1-.51.51c-.1-.1-.07-.29.07-.44A.33.33,0,0,1,579,303.94Z" style="fill:#263238"></path><path d="M593.72,278.86a7.67,7.67,0,0,1-3.33-1.61,7.88,7.88,0,0,1-2.61-2.63c.12-.1,1.28,1.05,2.91,2.21S593.78,278.72,593.72,278.86Z" style="fill:#263238"></path><path d="M594.09,277a16.52,16.52,0,0,1-3.14-7.77,40.18,40.18,0,0,1,1.55,3.89A35.31,35.31,0,0,1,594.09,277Z" style="fill:#263238"></path><path d="M596.65,276.82a32.53,32.53,0,0,1,.07-8.13,15.59,15.59,0,0,1,.23,4.07A16.08,16.08,0,0,1,596.65,276.82Z" style="fill:#263238"></path><path d="M603.72,269a13.06,13.06,0,0,1-1.85,3.78,13.25,13.25,0,0,1-2.57,3.33,90.39,90.39,0,0,1,4.42-7.11Z" style="fill:#263238"></path><path d="M607.28,275.64a11.83,11.83,0,0,1-2.49,2.37,11.64,11.64,0,0,1-2.82,2,10.75,10.75,0,0,1,2.49-2.37A11.64,11.64,0,0,1,607.28,275.64Z" style="fill:#263238"></path><path d="M607.64,282.13A8.22,8.22,0,0,1,605,283.4a8,8,0,0,1-2.8.78,8.49,8.49,0,0,1,2.61-1.27A8.61,8.61,0,0,1,607.64,282.13Z" style="fill:#263238"></path><path d="M606.6,287.5a4.18,4.18,0,0,1-4.24.34,13.26,13.26,0,0,1,2.13-.11A12.57,12.57,0,0,1,606.6,287.5Z" style="fill:#263238"></path><path d="M591.34,284.11a9.65,9.65,0,0,1-3.1-.42,9.85,9.85,0,0,1-3-.93,9.72,9.72,0,0,1,3.11.42A9.53,9.53,0,0,1,591.34,284.11Z" style="fill:#263238"></path><path d="M592,287.21a9,9,0,0,1-3-.25,8.84,8.84,0,0,1-2.92-.78,17.62,17.62,0,0,1,5.93,1Z" style="fill:#263238"></path><path d="M592,289.88c0,.14-.86.44-2,.67a4.32,4.32,0,0,1-2.09.17c0-.14.86-.44,2-.68A4.38,4.38,0,0,1,592,289.88Z" style="fill:#263238"></path><path d="M538.8,306.66a9.86,9.86,0,0,1-1.44-2.87,9.58,9.58,0,0,1-1-3.05,9.83,9.83,0,0,1,1.44,2.86A10.17,10.17,0,0,1,538.8,306.66Z" style="fill:#263238"></path><path d="M542.46,307.15a10.61,10.61,0,0,1,.5-3.28,10.77,10.77,0,0,1,1-3.17,20.59,20.59,0,0,1-1.5,6.45Z" style="fill:#263238"></path><path d="M535.75,309.87a23.6,23.6,0,0,1-5.42-4.41,12,12,0,0,1,2.87,2A11.86,11.86,0,0,1,535.75,309.87Z" style="fill:#263238"></path><path d="M535.24,311.9a16.55,16.55,0,0,1-5.76-.85,15.95,15.95,0,0,1,5.76.85Z" style="fill:#263238"></path><path d="M534.9,316.31a13.8,13.8,0,0,1-5.26-.65,7.06,7.06,0,0,1,2.66.07A6.8,6.8,0,0,1,534.9,316.31Z" style="fill:#263238"></path><path d="M535.07,321.16a8.77,8.77,0,0,1-4.24,0,4.6,4.6,0,0,1,2.12-.24A4.46,4.46,0,0,1,535.07,321.16Z" style="fill:#263238"></path><path d="M549.64,320.42a4.6,4.6,0,0,1-2.12.18,4.68,4.68,0,0,1-2.11-.34c0-.15,1-.23,2.13-.18S549.65,320.27,549.64,320.42Z" style="fill:#263238"></path><path d="M550.32,315.9a4.76,4.76,0,0,1-2.2.26,5,5,0,0,1-2.2-.27,4.68,4.68,0,0,1,2.2-.25A4.92,4.92,0,0,1,550.32,315.9Z" style="fill:#263238"></path><path d="M551,310a7.63,7.63,0,0,1-2.44,1.43,7.89,7.89,0,0,1-2.65,1,7.87,7.87,0,0,1,2.43-1.43A8,8,0,0,1,551,310Z" style="fill:#263238"></path><path d="M549.34,305.68c.1.11-.71,1-1.8,1.95a7.15,7.15,0,0,1-2.14,1.56c-.1-.11.71-1,1.8-1.95A6.94,6.94,0,0,1,549.34,305.68Z" style="fill:#263238"></path><path d="M560.5,303.62a7.05,7.05,0,0,1-5.34.15,713.74,713.74,0,0,0,5.34-.15Z" style="fill:#263238"></path><path d="M561.45,308.81a10.73,10.73,0,0,1-3.81.81,10.84,10.84,0,0,1-3.89-.07,21.67,21.67,0,0,1,3.84-.44A23.5,23.5,0,0,1,561.45,308.81Z" style="fill:#263238"></path><path d="M562.38,313.18a17.34,17.34,0,0,1-4.12.91,17.14,17.14,0,0,1-4.19.39,17.18,17.18,0,0,1,4.11-.91A16.66,16.66,0,0,1,562.38,313.18Z" style="fill:#263238"></path><path d="M581.23,306.94c0,.15-.92.24-2.05.2a4.19,4.19,0,0,1-2-.32,4.32,4.32,0,0,1,2.05-.2A4.22,4.22,0,0,1,581.23,306.94Z" style="fill:#263238"></path><path d="M581.86,309.3c0,.14-.69.29-1.56.33s-1.57,0-1.58-.18.69-.29,1.56-.34S581.85,309.15,581.86,309.3Z" style="fill:#263238"></path><path d="M592.85,295.44a10.18,10.18,0,0,1-4-.11,10.29,10.29,0,0,1-3.85-1.14,31.82,31.82,0,0,1,3.93.63A31.29,31.29,0,0,1,592.85,295.44Z" style="fill:#263238"></path><path d="M608.41,292.66a8.53,8.53,0,0,1-2.87.64,8.1,8.1,0,0,1-2.94.13,16.81,16.81,0,0,1,5.81-.77Z" style="fill:#263238"></path><path d="M560.81,323.27a10.24,10.24,0,0,1-3.27-.36,10.72,10.72,0,0,1-3.17-.88,10.24,10.24,0,0,1,3.27.36A10.72,10.72,0,0,1,560.81,323.27Z" style="fill:#263238"></path><path d="M633.32,401.32c0,.15-19.73.26-44.06.26s-44.06-.11-44.06-.26,19.72-.26,44.06-.26S633.32,401.18,633.32,401.32Z" style="fill:#263238"></path></g><g id="freepik--Bird--inject-271"><path d="M319.44,63.68a11.45,11.45,0,0,1-1.64,0,42.67,42.67,0,0,0-4.48.14,22.82,22.82,0,0,0-6.45,1.48,22.22,22.22,0,0,0-3.51,1.77A31.37,31.37,0,0,0,300,69.61l-.2.18-.18-.23-.76-1a16.51,16.51,0,0,0-3.34-2.89,22.43,22.43,0,0,0-3.71-1.84,27.44,27.44,0,0,0-6.85-1.59,32.33,32.33,0,0,0-4.77-.16,15.25,15.25,0,0,1-1.75.06s.15,0,.44-.1a13,13,0,0,1,1.3-.16,27.9,27.9,0,0,1,11.8,1.5,21.91,21.91,0,0,1,3.81,1.86,16.73,16.73,0,0,1,3.47,3l.78,1-.38,0a30.32,30.32,0,0,1,3.48-2.58,23.54,23.54,0,0,1,3.6-1.78,22.36,22.36,0,0,1,6.6-1.4,34.46,34.46,0,0,1,4.52,0c.53,0,.94.09,1.21.12S319.45,63.66,319.44,63.68Z" style="fill:#263238"></path><path d="M265.67,82.4c0,.1-1.44-.05-3.74.16a14,14,0,0,0-3.92.91,15.18,15.18,0,0,0-4.19,2.63l-.2.18-.18-.23-.46-.57a10.69,10.69,0,0,0-4.26-2.87,17.35,17.35,0,0,0-4.16-1c-2.44-.27-4,0-4-.13a3.82,3.82,0,0,1,1.06-.2,17,17,0,0,1,7.25.87,10.82,10.82,0,0,1,4.49,3l.49.61-.39,0A14.7,14.7,0,0,1,257.84,83a13.7,13.7,0,0,1,4.06-.83,19.66,19.66,0,0,1,2.77,0A4.33,4.33,0,0,1,265.67,82.4Z" style="fill:#263238"></path></g><g id="freepik--Character--inject-271"><path d="M319.5,194.1l1.05,15.4s40.25,1.34,44.37-3c1.88-2,8.45-28.81,10.75-46.69.89-6.91-4.62-13-11.58-13.45h0A12.4,12.4,0,0,0,351,157l-4.24,30.61Z" style="fill:#FF725E"></path><g style="opacity:0.30000000000000004"><path d="M331,209.7a27.58,27.58,0,0,1,11.7-14.49,21.64,21.64,0,0,1,9.66-3.3,14.89,14.89,0,0,1,9.75,2.6c2.78,2,4.58,3.94,4.66,7.38a26.44,26.44,0,0,1-1.83,4.58c-.29.41-1.34,1.06-4.2,1.64A99.44,99.44,0,0,1,343,209.6Z"></path></g><path d="M350.3,210.54s-39.91,13.17-41.82,23.24c-2.71,14.29,9.09,85.84,9.09,85.84l24.07-2.22-4-69.19s57.34-15.7,58.32-24.22a130.82,130.82,0,0,0,.95-19.19Z" style="fill:#263238"></path><path d="M462.85,252s13.94,16,18.08,45c0,0-2.95-3.64-9-18.62s-12.69-16-12.69-16Z" style="fill:#455a64"></path><path d="M476.6,288.56A11.94,11.94,0,0,0,475,300.42c1.13,2.69,3.32,5.19,3,8.1l3.18-3.43a1.73,1.73,0,0,0,.73,2.57,2.68,2.68,0,0,0,2.85-.7,6.32,6.32,0,0,0,1.44-2.73,14.46,14.46,0,0,0-.58-10.69c-1.68-3.25-5.31-5.6-8.94-5.12" style="fill:#263238"></path><path d="M400.54,317.19s6.37,42.91,30.73,56.25,20.29,21.61,20.29,21.61l.28,58.25s-9.59,11.12-11.21,11.76c-2,.77,24.85,0,24.85,0s1.62-3-.76-13.23c-1.76-7.53,14.68-63.9,8.88-73.75s-10.46-19.38-11-40.72-4.63-46.26-4.63-46.26Z" style="fill:#455a64"></path><path d="M466.24,260.26c-6.11-29.45-24.73-54.13-32.33-54.87-13.16-1.29-29.36,36-39.44,38.18S356.88,205,343.41,207.78c-8.56,1.75-29.58,49.26-34.16,51.4s-13.91,1.16-19.71-5.86-5-22.55-5-22.55,1.85-21.28,2.43-35.45c.15-2.79.24-5.6.16-7.93v0h0a20.18,20.18,0,0,0-.42-4c-1.37-5.5-6.8-17-6.8-17,6.46-5.73,2.71-15.28,2.71-15.28s-5.77,1.62-7.91,2-4.89,5.86-4.89,5.86-5.09-1.13-6.14-1.21-17.09,3.74-19.8,4.58-8.8.48-10.38.35-9.41-1.25-10.14-1.41-6.22,4.64-6.54,5.4A35,35,0,0,0,216,171s-2.87,2.26-3.15,3.88,3.59,4.08,3.59,4.08a5,5,0,0,0-.41,2.51c.17,1.33,6.66,5.37,7.84,5.94s2.34-1.61,4.8-2.06,10.21,4,17.78,5.85c6.49,1.56,8,9.18,8.3,12.11.57,9,2.3,18-3.19,53.7-2.94,19.07,5.78,35.35,15.94,47.09a202.05,202.05,0,0,1,27.65,41.18c6.31,12.5,11.76,23.47,12.46,25.34,1.74,4.64,0,18,0,18s10.07,31.89,9.1,44.65-11.24,23.19-11.24,23.19H333.1l-2.79-4.19s7-1.16,4.06-7.54-7.65-18.42-7.65-25.38c0-4.63.77-48.29,1.46-77.16a211.35,211.35,0,0,0,40.93,4.94c21.08.3,93.77-8.56,93.46-9.78S472.34,289.72,466.24,260.26Z" style="fill:#455a64"></path><path d="M374,311.88s6.38,42.91,30.74,56.24S425,389.74,425,389.74l.27,58.24s-9.59,11.13-11.21,11.76c-2,.78,24.86,0,24.86,0s1.62-3-.76-13.22c-1.77-7.53,14.67-63.9,8.88-73.76s-10.46-19.38-11-40.71-4.63-46.27-4.63-46.27Z" style="fill:#455a64"></path><path d="M305.44,325.31c1.16,1.74,27.25,49.29,29,53.93s0,18,0,18,10.07,31.89,9.1,44.65a63.33,63.33,0,0,1-6.78,23.2h23.19l-.36-4.82s7-1.16,4.06-7.53S353.57,434.9,353.57,428s1.74-102.06,2.32-102.64S305.44,325.31,305.44,325.31Z" style="fill:#455a64"></path><path d="M415.81,358.14c.06,0,.14.74.55,2a16.39,16.39,0,0,0,2.7,4.91,25.79,25.79,0,0,0,6.22,5.53,81.5,81.5,0,0,0,9.09,4.8,49.94,49.94,0,0,1,8.94,5.22A21.68,21.68,0,0,1,448.9,387a13.85,13.85,0,0,1,1.78,5.42,9.34,9.34,0,0,1,0,1.55,3.37,3.37,0,0,1,0,.54c-.07,0,0-.75-.18-2.07a14.39,14.39,0,0,0-1.9-5.26A21.88,21.88,0,0,0,443,381a51.81,51.81,0,0,0-8.88-5.13A76.73,76.73,0,0,1,425,371a25.21,25.21,0,0,1-6.25-5.7,15.32,15.32,0,0,1-2.6-5.08,11.67,11.67,0,0,1-.32-1.52A2.19,2.19,0,0,1,415.81,358.14Z" style="fill:#263238"></path><path d="M342.6,452.23a16.59,16.59,0,0,1,2.43,1.32c1.47.85,3.52,2,5.86,3.13s4.51,2,6.1,2.59a22.22,22.22,0,0,1,2.59,1,10.48,10.48,0,0,1-2.7-.62,44.69,44.69,0,0,1-6.22-2.48,54.84,54.84,0,0,1-5.82-3.28A12.65,12.65,0,0,1,342.6,452.23Z" style="fill:#263238"></path><path d="M330.31,452.28a13.39,13.39,0,0,1-2.68-.69c-1.62-.5-3.85-1.26-6.31-2.07s-4.72-1.43-6.36-1.84a20.21,20.21,0,0,1-2.66-.72,11.22,11.22,0,0,1,2.74.36,55.16,55.16,0,0,1,6.44,1.71c2.47.81,4.68,1.62,6.27,2.21A15.71,15.71,0,0,1,330.31,452.28Z" style="fill:#263238"></path><path d="M439.41,454.62a59.27,59.27,0,0,1-7.19-3.08,60.23,60.23,0,0,1-7-3.56,58.48,58.48,0,0,1,7.19,3.09A59.33,59.33,0,0,1,439.41,454.62Z" style="fill:#263238"></path><path d="M465.28,460.45a50.3,50.3,0,0,1-6.5-3.25,49.47,49.47,0,0,1-6.24-3.7,103.37,103.37,0,0,1,12.74,6.95Z" style="fill:#263238"></path><path d="M231.35,175a3.22,3.22,0,0,1-1.6,1.82,7,7,0,0,1-2.51.89,14.35,14.35,0,0,1-3.23.08c-1.13-.06-2.2-.14-3.16-.1a9,9,0,0,0-2.49.45,8.75,8.75,0,0,0-2,1.15,3.53,3.53,0,0,1,1.91-1.5,8.39,8.39,0,0,1,2.59-.58,27.1,27.1,0,0,1,3.22.06,16.2,16.2,0,0,0,3.13,0,7.22,7.22,0,0,0,2.4-.74A7,7,0,0,0,231.35,175Z" style="fill:#263238"></path><path d="M220.18,167.86a4,4,0,0,1,2.41-2.29,1.15,1.15,0,0,1,1.1.08.91.91,0,0,1-.12,1.29,2.73,2.73,0,0,1-1.36.52,2.44,2.44,0,0,0-1.33.58" style="fill:#263238"></path><path d="M259.05,164.92a13.28,13.28,0,0,1-1.42-.66,7.35,7.35,0,0,0-7,.69c-.8.53-1.21,1-1.27.93s.27-.58,1.05-1.23a6.79,6.79,0,0,1,7.42-.72C258.67,164.4,259.09,164.88,259.05,164.92Z" style="fill:#263238"></path><path d="M255.08,163.77a2.23,2.23,0,0,0-1.68,1.58,2.37,2.37,0,0,0,1,2.53,2.47,2.47,0,0,0,2.52-.4,2.33,2.33,0,0,0,.72-2.73,2.18,2.18,0,0,0-2.57-1" style="fill:#263238"></path><path d="M282,151.86a16.24,16.24,0,0,0-5.81,15,.62.62,0,0,0,.25.48.6.6,0,0,0,.5-.06,10.75,10.75,0,0,0,5.84-6.88c.82-3,.16-5.38-.78-8.51" style="fill:#263238"></path><path d="M244.79,162.11A30,30,0,0,1,251,176.74c.18,1.83.31,3.95,1.8,5a5.81,5.81,0,0,0,2.84.84c9.07.95,21-.75,29.86-3,1.45,1.31,2.06,4.38,1.65,6.26a114.5,114.5,0,0,1-20.75,1.9c-3.85,0-7.72-.57-11.55-.13s-6.33.32-8.41,3.56a8.12,8.12,0,0,1-5.22-1.59c2.74-1,3.79-3.46,4.07-6.35s-.55-5.75-1.4-8.52a39.06,39.06,0,0,0-5.93-11.86Z" style="fill:#FF725E"></path><path d="M315.2,366.57a8.7,8.7,0,0,1-.76,2.24c-.29.68-.66,1.47-1.12,2.32a2.4,2.4,0,0,1-1.08,1.25,1.11,1.11,0,0,1-1-.12,2.54,2.54,0,0,1-.65-.66,25.25,25.25,0,0,1-2.61-5.11,8.16,8.16,0,0,1-.64-2.29,54.56,54.56,0,0,0,3.68,7.1c.29.43.69.75,1,.6s.6-.59.84-1c.48-.83.88-1.59,1.21-2.24A14.51,14.51,0,0,1,315.2,366.57Z" style="fill:#fafafa"></path><path d="M311.43,372c-2.55.47-2.59,6.32-1.47,9.52l1.45-2.09c.4.87.8,1.74,1.21,2.61l.3-1.82,2,1.69a5.13,5.13,0,0,0,.74-3.34,10.72,10.72,0,0,0-1-3.32,12.43,12.43,0,0,0-1.14-2.43,1.87,1.87,0,0,0-2.05-.82" style="fill:#fafafa"></path><path d="M323.76,364.2a9,9,0,0,1-.49,1.92c-.18.58-.4,1.28-.68,2a10.27,10.27,0,0,1-1.18,2.41,1.41,1.41,0,0,1-.68.48,1.06,1.06,0,0,1-.84-.11,2.91,2.91,0,0,1-.92-1c-.42-.69-.78-1.33-1.05-1.88a5.4,5.4,0,0,1-.71-1.85,11.54,11.54,0,0,1,1,1.67c.31.52.7,1.13,1.14,1.8a2.35,2.35,0,0,0,.76.83.62.62,0,0,0,.86-.25,10.66,10.66,0,0,0,1.14-2.26q.42-1,.78-2A6.75,6.75,0,0,1,323.76,364.2Z" style="fill:#fafafa"></path><path d="M320,370.62c-2.55.46-2.58,6.31-1.47,9.51L320,378l1.21,2.61.3-1.82,2,1.69a5.17,5.17,0,0,0,.73-3.34,10.88,10.88,0,0,0-1-3.32,11.87,11.87,0,0,0-1.14-2.43,1.85,1.85,0,0,0-2.05-.81" style="fill:#fafafa"></path><path d="M332.8,362.78a7.3,7.3,0,0,1-.44,1.81c-.17.55-.37,1.2-.65,1.92a9.65,9.65,0,0,1-.5,1.1,2.89,2.89,0,0,1-.83,1.11,1.08,1.08,0,0,1-.8.19,1.4,1.4,0,0,1-.67-.36,5.25,5.25,0,0,1-.75-1c-.39-.65-.72-1.26-1-1.78a4.91,4.91,0,0,1-.66-1.75,9.82,9.82,0,0,1,1,1.58c.29.49.65,1.06,1.06,1.69a4.36,4.36,0,0,0,.68.89.63.63,0,0,0,.84.12,2.61,2.61,0,0,0,.67-.92q.28-.53.51-1.05c.29-.68.53-1.32.74-1.85A6.4,6.4,0,0,1,332.8,362.78Z" style="fill:#fafafa"></path><path d="M329.31,368.44c-2.55.47-2.58,6.32-1.46,9.52l1.44-2.09c.41.87.81,1.74,1.21,2.61l.3-1.82,2,1.69a5.12,5.12,0,0,0,.73-3.34,10.45,10.45,0,0,0-1-3.32,12.31,12.31,0,0,0-1.13-2.43,1.89,1.89,0,0,0-2.06-.82" style="fill:#fafafa"></path><path d="M342.43,363.34a11.42,11.42,0,0,1-.56,2.13,19.41,19.41,0,0,1-.82,2.25,7,7,0,0,1-.73,1.27,1.31,1.31,0,0,1-.77.48,1.16,1.16,0,0,1-.91-.27,4.78,4.78,0,0,1-1-1.27c-.25-.42-.49-.83-.7-1.22-.44-.79-.8-1.51-1.1-2.12a8.9,8.9,0,0,1-.83-2,10,10,0,0,1,1.16,1.87l1.18,2.05.73,1.2a4.41,4.41,0,0,0,.85,1.12.63.63,0,0,0,1-.13,6.48,6.48,0,0,0,.68-1.14c.39-.79.67-1.54.92-2.17A7.72,7.72,0,0,1,342.43,363.34Z" style="fill:#fafafa"></path><path d="M338.94,369c-2.55.46-2.59,6.32-1.47,9.52l1.45-2.09c.4.87.8,1.74,1.21,2.61l.3-1.82,2,1.69a5.13,5.13,0,0,0,.74-3.34,10.86,10.86,0,0,0-1-3.33,11.82,11.82,0,0,0-1.14-2.42,1.87,1.87,0,0,0-2.05-.82" style="fill:#fafafa"></path><path d="M360.32,369.92a11.42,11.42,0,0,1-.56,2.13,17.91,17.91,0,0,1-.83,2.25,6,6,0,0,1-.73,1.27,1.26,1.26,0,0,1-.77.48,1.17,1.17,0,0,1-.91-.27,4.73,4.73,0,0,1-1-1.27c-.26-.42-.49-.83-.71-1.22-.43-.79-.79-1.51-1.09-2.12a7.87,7.87,0,0,1-.83-2,10.69,10.69,0,0,1,1.16,1.87l1.18,2.05q.36.58.72,1.2a4.92,4.92,0,0,0,.85,1.12.64.64,0,0,0,1-.13,6.48,6.48,0,0,0,.68-1.14c.38-.79.67-1.54.91-2.17A7.91,7.91,0,0,1,360.32,369.92Z" style="fill:#fafafa"></path><path d="M356.82,375.58c-2.55.46-2.58,6.32-1.46,9.51l1.45-2.08,1.2,2.6c.1-.6.2-1.21.31-1.81l2,1.69a5.06,5.06,0,0,0,.73-3.34,10.59,10.59,0,0,0-1-3.33,12.26,12.26,0,0,0-1.13-2.42,1.89,1.89,0,0,0-2.06-.82" style="fill:#fafafa"></path><path d="M368.74,371.35a11.42,11.42,0,0,1-.56,2.13,17.91,17.91,0,0,1-.83,2.25,6.15,6.15,0,0,1-.72,1.28,1.35,1.35,0,0,1-.78.47,1.15,1.15,0,0,1-.9-.27,4.74,4.74,0,0,1-1-1.26c-.25-.42-.49-.83-.7-1.23-.44-.79-.8-1.51-1.1-2.12a8.19,8.19,0,0,1-.83-2,10.46,10.46,0,0,1,1.16,1.87l1.18,2.05.73,1.2a4.24,4.24,0,0,0,.85,1.12.63.63,0,0,0,1-.13,6.48,6.48,0,0,0,.68-1.14c.39-.79.67-1.54.92-2.17A7.94,7.94,0,0,1,368.74,371.35Z" style="fill:#fafafa"></path><path d="M365.25,377c-2.55.47-2.59,6.32-1.47,9.52l1.45-2.09,1.2,2.61.31-1.82,2,1.69a5.06,5.06,0,0,0,.73-3.34,10.51,10.51,0,0,0-1-3.32,12.43,12.43,0,0,0-1.14-2.43,1.87,1.87,0,0,0-2.05-.82" style="fill:#fafafa"></path><path d="M378.65,371a11.42,11.42,0,0,1-.56,2.13,20.1,20.1,0,0,1-.82,2.25,7,7,0,0,1-.73,1.27,1.36,1.36,0,0,1-.77.48,1.24,1.24,0,0,1-.91-.27,4.78,4.78,0,0,1-1-1.27c-.25-.42-.49-.83-.7-1.22-.44-.79-.8-1.51-1.1-2.12a9.1,9.1,0,0,1-.83-2,10,10,0,0,1,1.16,1.87c.37.64.77,1.32,1.18,2.05l.73,1.19a4.3,4.3,0,0,0,.85,1.13.64.64,0,0,0,1-.13,6.57,6.57,0,0,0,.68-1.15c.39-.79.67-1.54.92-2.17A7.74,7.74,0,0,1,378.65,371Z" style="fill:#fafafa"></path><path d="M375.16,376.66c-2.55.46-2.59,6.32-1.47,9.51l1.45-2.08c.4.87.8,1.73,1.21,2.6l.3-1.81,2,1.69a5.14,5.14,0,0,0,.74-3.34,10.86,10.86,0,0,0-1-3.33,12.7,12.7,0,0,0-1.14-2.43,1.86,1.86,0,0,0-2-.81" style="fill:#fafafa"></path><path d="M387.69,368.2c.06,0-.2.93-.49,2.43-.16.75-.35,1.65-.61,2.64a11.93,11.93,0,0,1-.5,1.54A2.83,2.83,0,0,1,385,376.3a1.12,1.12,0,0,1-1.08-.1,2.42,2.42,0,0,1-.65-.67c-.31-.48-.58-.93-.84-1.38-.5-.88-.92-1.7-1.26-2.39a10.52,10.52,0,0,1-1-2.29,12.72,12.72,0,0,1,1.3,2.12c.38.66.83,1.46,1.35,2.32.26.43.54.89.84,1.33s.71.78,1.09.58a2.47,2.47,0,0,0,.86-1.21,12.85,12.85,0,0,0,.51-1.47l.71-2.59A7.34,7.34,0,0,1,387.69,368.2Z" style="fill:#fafafa"></path><path d="M384.08,375.92c-2.55.46-2.59,6.31-1.47,9.51l1.45-2.09c.4.87.8,1.74,1.21,2.61l.3-1.82,2,1.69a5.17,5.17,0,0,0,.73-3.34,10.88,10.88,0,0,0-1-3.32,11.87,11.87,0,0,0-1.14-2.43,1.85,1.85,0,0,0-2.05-.81" style="fill:#fafafa"></path><path d="M397.12,365.09c.06,0-.19.93-.49,2.44-.16.75-.34,1.64-.6,2.63a15.25,15.25,0,0,1-.5,1.54,2.78,2.78,0,0,1-1.12,1.49,1.1,1.1,0,0,1-1.07-.09,2.45,2.45,0,0,1-.65-.68c-.32-.47-.59-.93-.84-1.37-.5-.89-.92-1.7-1.26-2.39a9.87,9.87,0,0,1-1-2.3,13.82,13.82,0,0,1,1.29,2.12c.38.67.83,1.46,1.36,2.32.25.43.54.89.84,1.33s.71.78,1.08.59a2.55,2.55,0,0,0,.87-1.21,15.28,15.28,0,0,0,.51-1.48c.25-.93.49-1.79.7-2.59A7.64,7.64,0,0,1,397.12,365.09Z" style="fill:#fafafa"></path><path d="M393.51,372.81c-2.54.46-2.58,6.32-1.46,9.51l1.45-2.08,1.2,2.6L395,381l2,1.69a5.08,5.08,0,0,0,.73-3.34,10.84,10.84,0,0,0-1-3.33,13,13,0,0,0-1.14-2.42,1.87,1.87,0,0,0-2.06-.82" style="fill:#fafafa"></path><path d="M406.75,363.81c.06,0-.19.93-.49,2.43-.16.75-.34,1.65-.6,2.64a16.11,16.11,0,0,1-.5,1.54,2.91,2.91,0,0,1-1.12,1.49,1.1,1.1,0,0,1-1.07-.1,2.42,2.42,0,0,1-.65-.67c-.32-.48-.59-.93-.84-1.38-.51-.88-.92-1.7-1.26-2.39a9.92,9.92,0,0,1-1-2.29,14.87,14.87,0,0,1,1.29,2.12c.38.66.83,1.46,1.35,2.32.26.43.55.89.84,1.33s.72.78,1.09.58a2.55,2.55,0,0,0,.87-1.21,15,15,0,0,0,.5-1.47c.26-.93.5-1.8.71-2.59A7.64,7.64,0,0,1,406.75,363.81Z" style="fill:#fafafa"></path><path d="M403.14,371.53c-2.55.46-2.58,6.32-1.46,9.51.48-.69,1-1.39,1.45-2.08l1.2,2.6c.1-.61.2-1.21.31-1.82l2,1.69a5.05,5.05,0,0,0,.73-3.34,10.61,10.61,0,0,0-1-3.32,12.31,12.31,0,0,0-1.13-2.43,1.87,1.87,0,0,0-2.06-.81" style="fill:#fafafa"></path><path d="M415.32,361.5c.06,0-.19.93-.49,2.43-.16.75-.34,1.65-.6,2.64a16.11,16.11,0,0,1-.5,1.54,2.81,2.81,0,0,1-1.12,1.49,1.1,1.1,0,0,1-1.07-.1,2.29,2.29,0,0,1-.65-.67c-.32-.48-.59-.93-.84-1.37-.5-.89-.92-1.71-1.26-2.4a9.92,9.92,0,0,1-1-2.29,13.82,13.82,0,0,1,1.29,2.12c.38.67.83,1.46,1.36,2.32.25.43.54.89.84,1.33s.71.78,1.08.59a2.58,2.58,0,0,0,.87-1.22,15.12,15.12,0,0,0,.51-1.47c.25-.93.49-1.8.7-2.59A7.64,7.64,0,0,1,415.32,361.5Z" style="fill:#fafafa"></path><path d="M411.71,369.22c-2.54.46-2.58,6.32-1.46,9.51l1.45-2.08,1.2,2.6c.1-.6.21-1.21.31-1.82l2,1.7a5.08,5.08,0,0,0,.73-3.34,10.59,10.59,0,0,0-1-3.33,12.31,12.31,0,0,0-1.13-2.43,1.86,1.86,0,0,0-2.06-.81" style="fill:#fafafa"></path><path d="M424.24,361.13c.06,0-.19.93-.49,2.43-.16.75-.34,1.65-.6,2.64a16.11,16.11,0,0,1-.5,1.54,2.91,2.91,0,0,1-1.12,1.49,1.1,1.1,0,0,1-1.07-.1,2.29,2.29,0,0,1-.65-.67c-.32-.48-.59-.93-.84-1.38-.51-.88-.92-1.7-1.26-2.39a9.92,9.92,0,0,1-1-2.29,14.15,14.15,0,0,1,1.29,2.12c.38.66.83,1.46,1.35,2.32.26.43.55.89.84,1.33s.72.78,1.09.58a2.55,2.55,0,0,0,.87-1.21,15,15,0,0,0,.5-1.47c.26-.93.49-1.8.71-2.59A7.64,7.64,0,0,1,424.24,361.13Z" style="fill:#fafafa"></path><path d="M420.63,368.85c-2.55.46-2.58,6.31-1.46,9.51l1.45-2.09,1.2,2.61.3-1.82,2,1.69a5.11,5.11,0,0,0,.73-3.34,10.61,10.61,0,0,0-1-3.32,12.31,12.31,0,0,0-1.13-2.43,1.87,1.87,0,0,0-2.06-.81" style="fill:#fafafa"></path><path d="M434.23,360.2c.06,0-.19.93-.49,2.43-.16.75-.34,1.65-.6,2.64a16.11,16.11,0,0,1-.5,1.54,2.91,2.91,0,0,1-1.12,1.49,1.1,1.1,0,0,1-1.07-.1,2.29,2.29,0,0,1-.65-.67c-.32-.48-.59-.93-.84-1.38-.51-.88-.92-1.7-1.26-2.39a9.92,9.92,0,0,1-1-2.29,14.87,14.87,0,0,1,1.29,2.12c.38.66.83,1.46,1.35,2.32.26.43.55.89.84,1.33s.72.78,1.09.58a2.55,2.55,0,0,0,.87-1.21,15,15,0,0,0,.5-1.47c.26-.93.49-1.8.71-2.59A7.64,7.64,0,0,1,434.23,360.2Z" style="fill:#fafafa"></path><path d="M430.62,367.92c-2.55.46-2.58,6.31-1.46,9.51.48-.69,1-1.39,1.45-2.08l1.2,2.6.3-1.82,2,1.69a5.11,5.11,0,0,0,.73-3.34,10.61,10.61,0,0,0-1-3.32,12.31,12.31,0,0,0-1.13-2.43,1.87,1.87,0,0,0-2.06-.81" style="fill:#fafafa"></path><path d="M443.82,359.56c.06,0-.19.93-.49,2.43-.16.75-.34,1.65-.6,2.64a16.11,16.11,0,0,1-.5,1.54,2.85,2.85,0,0,1-1.12,1.48,1.07,1.07,0,0,1-1.07-.09,2.42,2.42,0,0,1-.65-.67c-.32-.48-.59-.93-.84-1.38-.51-.88-.92-1.7-1.26-2.39a9.92,9.92,0,0,1-1-2.29,14.15,14.15,0,0,1,1.29,2.12c.38.66.83,1.46,1.35,2.32.26.43.55.89.84,1.33s.72.78,1.09.58a2.55,2.55,0,0,0,.87-1.21c.2-.49.36-1,.51-1.47l.7-2.6A7.64,7.64,0,0,1,443.82,359.56Z" style="fill:#fafafa"></path><path d="M440.21,367.27c-2.55.47-2.58,6.32-1.46,9.52l1.45-2.09,1.2,2.61.31-1.82,2,1.69a5.05,5.05,0,0,0,.73-3.34,10.61,10.61,0,0,0-1-3.32,12.31,12.31,0,0,0-1.13-2.43,1.89,1.89,0,0,0-2.06-.82" style="fill:#fafafa"></path><path d="M453.71,358.76c.05,0-.2.93-.5,2.43-.15.75-.34,1.65-.6,2.64a11.93,11.93,0,0,1-.5,1.54,2.88,2.88,0,0,1-1.11,1.49,1.12,1.12,0,0,1-1.08-.1,2.42,2.42,0,0,1-.65-.67c-.31-.48-.58-.93-.84-1.38-.5-.88-.92-1.7-1.26-2.39a10.52,10.52,0,0,1-1-2.29,13.3,13.3,0,0,1,1.3,2.12c.38.67.82,1.46,1.35,2.32.25.43.54.89.84,1.33s.71.78,1.09.59a2.5,2.5,0,0,0,.86-1.22,15.12,15.12,0,0,0,.51-1.47c.25-.93.49-1.8.71-2.59A7.34,7.34,0,0,1,453.71,358.76Z" style="fill:#fafafa"></path><path d="M450.1,366.48c-2.55.46-2.59,6.32-1.47,9.51l1.45-2.08c.4.86.8,1.73,1.21,2.6l.3-1.82,2,1.69a5.05,5.05,0,0,0,.73-3.34,10.59,10.59,0,0,0-1-3.32,12.43,12.43,0,0,0-1.14-2.43,1.86,1.86,0,0,0-2-.81" style="fill:#fafafa"></path><path d="M464.79,359.88c.06,0-.2.92-.49,2.43-.16.75-.35,1.64-.61,2.63a11.57,11.57,0,0,1-.5,1.55,2.77,2.77,0,0,1-1.11,1.48,1.09,1.09,0,0,1-1.08-.09,2.42,2.42,0,0,1-.65-.67c-.31-.48-.58-.93-.84-1.38-.5-.89-.92-1.7-1.26-2.39a10.24,10.24,0,0,1-1-2.3,13.77,13.77,0,0,1,1.3,2.13c.38.66.83,1.45,1.35,2.32.26.43.54.88.84,1.32s.71.79,1.09.59a2.47,2.47,0,0,0,.86-1.21,13,13,0,0,0,.51-1.48l.71-2.59A7.34,7.34,0,0,1,464.79,359.88Z" style="fill:#fafafa"></path><path d="M461.18,367.59c-2.55.47-2.59,6.32-1.47,9.52l1.45-2.09c.4.87.8,1.74,1.21,2.61l.3-1.82,2,1.69a5.13,5.13,0,0,0,.74-3.34,10.72,10.72,0,0,0-1-3.32,11.87,11.87,0,0,0-1.14-2.43,1.87,1.87,0,0,0-2.05-.82" style="fill:#fafafa"></path><path d="M474.66,359.69c.06,0-.19.93-.49,2.43-.16.75-.34,1.65-.6,2.64a16.11,16.11,0,0,1-.5,1.54,2.91,2.91,0,0,1-1.12,1.49,1.1,1.1,0,0,1-1.07-.1,2.42,2.42,0,0,1-.65-.67c-.32-.48-.59-.93-.84-1.38-.51-.88-.92-1.7-1.26-2.39a9.92,9.92,0,0,1-1-2.29,14.87,14.87,0,0,1,1.29,2.12c.38.66.83,1.46,1.35,2.32.26.43.55.89.84,1.33s.72.78,1.09.58a2.55,2.55,0,0,0,.87-1.21c.2-.49.36-1,.51-1.47.25-.93.49-1.8.7-2.59A7.64,7.64,0,0,1,474.66,359.69Z" style="fill:#fafafa"></path><path d="M471.05,367.41c-2.55.46-2.58,6.32-1.46,9.51.48-.69,1-1.39,1.45-2.08l1.2,2.6c.1-.61.2-1.21.31-1.82l2,1.69a5.05,5.05,0,0,0,.73-3.34,10.61,10.61,0,0,0-1-3.32,12.31,12.31,0,0,0-1.13-2.43,1.87,1.87,0,0,0-2.06-.81" style="fill:#fafafa"></path><path d="M351.15,365.62a10.51,10.51,0,0,1-.56,2.13,19.41,19.41,0,0,1-.82,2.25,7,7,0,0,1-.73,1.28,1.32,1.32,0,0,1-.77.47,1.16,1.16,0,0,1-.91-.27,4.74,4.74,0,0,1-1-1.26c-.25-.42-.48-.84-.7-1.23-.44-.79-.8-1.51-1.1-2.12a8.7,8.7,0,0,1-.83-2,10.46,10.46,0,0,1,1.16,1.87l1.19,2.05.72,1.2a4.65,4.65,0,0,0,.85,1.12.63.63,0,0,0,1-.13,5.92,5.92,0,0,0,.68-1.14c.39-.79.67-1.54.92-2.17A7.94,7.94,0,0,1,351.15,365.62Z" style="fill:#fafafa"></path><path d="M347.66,371.28c-2.55.47-2.59,6.32-1.47,9.52l1.45-2.09c.4.87.8,1.74,1.21,2.61l.3-1.82,2,1.69a5.18,5.18,0,0,0,.73-3.34,10.72,10.72,0,0,0-1-3.32,11.87,11.87,0,0,0-1.14-2.43,1.87,1.87,0,0,0-2-.82" style="fill:#fafafa"></path><path d="M466.13,256.51c1.72,39.28,3.88,66.15,8.59,105.19-25.85-.88-52.1-1.72-77.18,4.58-12.09,3-24.54,7.74-36.64,4.79-9.17-2.24-17.35-8.76-26.78-8.52-5.44.14-10.54,2.56-15.89,3.54s-11.83,0-14.55-4.73c-1.7-2.94-1.5-6.56-1.25-9.94,2.34-31.8,7.77-92.54,7.77-92.54.85-1.27,6.21-17.87,14.19-32.31,6.18-11.19,13.8-21.18,23-21.18,19.73,0,34.71,37.12,42.63,37.12,13.64,0,23-38.26,42-39.54C446.23,202,465.17,234.34,466.13,256.51Z" style="fill:#FF725E"></path><path d="M348.61,271.47a3.29,3.29,0,0,1-.1-.66c-.05-.49-.12-1.12-.2-1.91-.15-1.65-.34-4-.47-7-.29-5.94-.38-14.15-.17-23.22s.69-17.28,1.15-23.2c.22-3,.45-5.36.62-7l.21-1.9a3.67,3.67,0,0,1,.11-.66,2.85,2.85,0,0,1,0,.67c0,.49-.07,1.12-.12,1.91-.11,1.72-.26,4.1-.45,7-.37,5.93-.77,14.13-1,23.19s-.18,17.27,0,23.2c.08,3,.21,5.37.3,7,0,.78.08,1.42.1,1.91A2.85,2.85,0,0,1,348.61,271.47Z" style="fill:#263238"></path><path d="M425.34,271.24c0,.14-17.32.26-38.69.26s-38.69-.12-38.69-.26,17.32-.26,38.69-.26S425.34,271.09,425.34,271.24Z" style="fill:#263238"></path><path d="M425.34,271.24c-.14,0-.26-14.83-.26-33.11s.12-33.12.26-33.12.26,14.82.26,33.12S425.49,271.24,425.34,271.24Z" style="fill:#263238"></path><path d="M429.16,203.7s0,.12,0,.34,0,.59,0,1c0,.92,0,2.25,0,4,0,3.48,0,8.52,0,14.88-.06,12.77-.14,30.79-.24,51.9v.24h-.25L387.87,276,345,275.83h-.2l0-.2a144.36,144.36,0,0,1-1.6-14.76c-.29-4.73-.42-9.24-.44-13.49-.06-8.51.24-16,.56-22.17s.72-11.08,1-14.42c.14-1.67.28-3,.36-3.83.05-.42.09-.74.11-1a2.13,2.13,0,0,1,.05-.33,2,2,0,0,1,0,.33c0,.24,0,.57-.07,1-.06.89-.16,2.17-.28,3.83-.26,3.35-.59,8.24-.89,14.42s-.54,13.66-.44,22.16c0,4.24.18,8.75.48,13.46a146.18,146.18,0,0,0,1.62,14.71l-.23-.2,42.84.09,40.83.13-.25.24c.18-21.11.33-39.14.43-51.9.07-6.36.13-11.41.17-14.89,0-1.71.05-3,.06-4q0-.65,0-1C429.15,203.82,429.16,203.7,429.16,203.7Z" style="fill:#263238"></path><path d="M452.66,218.89s0,.14,0,.4,0,.67,0,1.18c0,1.06.07,2.6.12,4.59.09,4,.22,9.89.38,17.3.28,14.84.68,35.88,1.16,60.67v.25h-.24l-57.28.16-75.77.14h-.21v-.21c-.78-19.75-1.44-36.16-1.9-47.64-.21-5.72-.38-10.21-.49-13.29-.05-1.53-.09-2.7-.11-3.5s0-1.2,0-1.2,0,.4.08,1.19.11,2,.18,3.5c.15,3.08.35,7.57.62,13.29.5,11.48,1.22,27.88,2.08,47.63l-.22-.21,75.77-.22,57.28-.12-.24.24c-.39-24.8-.73-45.83-1-60.68-.1-7.41-.18-13.27-.24-17.3,0-2,0-3.53,0-4.59v-1.18C452.65,219,452.66,218.89,452.66,218.89Z" style="fill:#263238"></path><path d="M476.17,342.34s-.16,0-.47,0l-1.36,0a34.12,34.12,0,0,0-5.21.44,63.83,63.83,0,0,0-8.06,1.93c-3.11.9-6.62,2.06-10.62,2.94a39.35,39.35,0,0,1-6.37.85,28.66,28.66,0,0,1-6.94-.63c-4.74-1-9.45-3.12-14.46-5.07a54.72,54.72,0,0,0-7.84-2.49c-.68-.16-1.38-.28-2.08-.38a16.37,16.37,0,0,0-2.12-.21l-2.14-.13c-.72,0-1.45.07-2.17.11a41.88,41.88,0,0,0-8.74,1.54c-2.88.88-5.78,1.89-8.65,3.08-5.75,2.33-11.25,5-16.84,6.82s-11.28,3-16.71,2.44a30.43,30.43,0,0,1-7.72-1.71,61.08,61.08,0,0,1-6.85-2.94c-4.31-2.14-8.17-4.38-11.85-6.13a46.25,46.25,0,0,0-10.32-3.6,26.77,26.77,0,0,0-8.22-.5,20.13,20.13,0,0,0-5.07,1.22c-.55.22-1,.43-1.25.55l-.43.18s.14-.09.41-.23.68-.36,1.23-.6a19.22,19.22,0,0,1,5.08-1.32,26.36,26.36,0,0,1,8.3.42,45.66,45.66,0,0,1,10.43,3.55c3.7,1.73,7.58,4,11.88,6.07s9.07,4.13,14.42,4.56,11-.57,16.51-2.44,11-4.48,16.81-6.82c2.88-1.2,5.79-2.21,8.7-3.1a42.57,42.57,0,0,1,8.85-1.55c.73,0,1.47-.1,2.2-.1l2.18.13a15.49,15.49,0,0,1,2.16.21,21,21,0,0,1,2.1.4,53.45,53.45,0,0,1,7.92,2.52c5,2,9.7,4.1,14.37,5.1a28.91,28.91,0,0,0,6.84.65,39.25,39.25,0,0,0,6.31-.81c4-.85,7.49-2,10.61-2.86a63.82,63.82,0,0,1,8.11-1.85,29.91,29.91,0,0,1,5.24-.34l1.37.08A4.35,4.35,0,0,1,476.17,342.34Z" style="fill:#263238"></path><g style="opacity:0.30000000000000004"><path d="M302.71,347.91c8-4.28,18.86-2.55,27,1.41s16,9.27,24.94,10.35c19.77,2.39,37.6-16.2,57.36-13.74,10.23,1.27,19.25,8.13,29.55,8.73,11.75.68,20.18-7,31.91-6l-.42-6.4s-24.33,6.12-28.59,6-11.39-.62-17.59-4.07-17.84-6.6-26.39-4-32.94,13.35-39.68,13.16-12-.71-18.1-3.81-19.24-10.34-25.39-11.15-14.6,2.93-14.6,2.93Z"></path></g><path d="M472.73,325.89l-.42.18-1.27.5c-1.11.42-2.76,1.05-4.9,1.8s-4.77,1.65-7.88,2.5a62.68,62.68,0,0,1-10.77,2,43.38,43.38,0,0,1-6.38.1,41.12,41.12,0,0,1-6.85-1c-4.66-1.08-9.44-2.91-14.57-4.42a49.92,49.92,0,0,0-16.52-2.11,49.18,49.18,0,0,0-17.41,4c-5.66,2.44-10.83,5.66-16.39,7.6a27.21,27.21,0,0,1-8.47,1.66,26.78,26.78,0,0,1-8.19-1.17A62.6,62.6,0,0,1,338.94,331a114.47,114.47,0,0,0-11.6-6.36,31.54,31.54,0,0,0-10.45-2.82,21.87,21.87,0,0,0-8.13.8,15.53,15.53,0,0,0-4.66,2.23c-1,.67-1.43,1.11-1.46,1.08a10.9,10.9,0,0,1,1.4-1.17,15.39,15.39,0,0,1,4.66-2.34,22.12,22.12,0,0,1,8.21-.89,31.29,31.29,0,0,1,10.58,2.78,110.28,110.28,0,0,1,11.67,6.32A62.17,62.17,0,0,0,352.85,337a24.91,24.91,0,0,0,16.35-.51c5.49-1.92,10.65-5.14,16.35-7.6a49.4,49.4,0,0,1,17.6-4,50.55,50.55,0,0,1,16.68,2.16c5.15,1.53,9.91,3.37,14.53,4.46a41.47,41.47,0,0,0,6.78,1,44.13,44.13,0,0,0,6.32-.07,64.21,64.21,0,0,0,10.73-1.94c3.1-.83,5.74-1.68,7.89-2.41l4.93-1.71,1.28-.45Z" style="fill:#263238"></path><polygon points="445.03 337.06 442.81 341.43 444.98 345.24 447.44 341.44 445.03 337.06" style="fill:#e0e0e0"></polygon><polygon points="465.83 331.4 463.62 335.77 465.79 339.58 468.25 335.78 465.83 331.4" style="fill:#e0e0e0"></polygon><polygon points="422.41 330.51 420.19 334.88 422.37 338.69 424.83 334.89 422.41 330.51" style="fill:#e0e0e0"></polygon><polygon points="394.37 330.63 392.15 335 394.32 338.81 396.78 335.01 394.37 330.63" style="fill:#e0e0e0"></polygon><polygon points="364.74 341.78 362.52 346.15 364.7 349.96 367.16 346.16 364.74 341.78" style="fill:#e0e0e0"></polygon><polygon points="324.66 291.66 322.44 296.03 324.61 299.84 327.07 296.04 324.66 291.66" style="fill:#e0e0e0"></polygon><polygon points="332.79 291.64 330.57 296.01 332.75 299.82 335.2 296.02 332.79 291.64" style="fill:#e0e0e0"></polygon><polygon points="341.93 291.64 339.71 296.01 341.88 299.82 344.34 296.02 341.93 291.64" style="fill:#e0e0e0"></polygon><polygon points="351.06 291.64 348.85 296.01 351.02 299.82 353.48 296.02 351.06 291.64" style="fill:#e0e0e0"></polygon><polygon points="360.2 291.64 357.98 296.01 360.15 299.82 362.61 296.02 360.2 291.64" style="fill:#e0e0e0"></polygon><polygon points="369.33 291.64 367.12 296.01 369.29 299.82 371.75 296.02 369.33 291.64" style="fill:#e0e0e0"></polygon><polygon points="378.47 291.64 376.25 296.01 378.43 299.82 380.88 296.02 378.47 291.64" style="fill:#e0e0e0"></polygon><polygon points="387.61 291.64 385.39 296.01 387.56 299.82 390.02 296.02 387.61 291.64" style="fill:#e0e0e0"></polygon><polygon points="396.74 291.64 394.53 296.01 396.7 299.82 399.16 296.02 396.74 291.64" style="fill:#e0e0e0"></polygon><polygon points="405.88 291.64 403.66 296.01 405.83 299.82 408.29 296.02 405.88 291.64" style="fill:#e0e0e0"></polygon><polygon points="415.01 291.64 412.8 296.01 414.97 299.82 417.43 296.02 415.01 291.64" style="fill:#e0e0e0"></polygon><polygon points="424.15 291.64 421.93 296.01 424.11 299.82 426.56 296.02 424.15 291.64" style="fill:#e0e0e0"></polygon><polygon points="433.29 291.64 431.07 296.01 433.24 299.82 435.7 296.02 433.29 291.64" style="fill:#e0e0e0"></polygon><polygon points="442.42 291.64 440.21 296.01 442.38 299.82 444.84 296.02 442.42 291.64" style="fill:#e0e0e0"></polygon><polygon points="449.89 291.66 447.67 296.03 449.84 299.84 452.3 296.04 449.89 291.66" style="fill:#e0e0e0"></polygon><polygon points="449.77 280.2 447.55 284.57 449.72 288.38 452.18 284.58 449.77 280.2" style="fill:#e0e0e0"></polygon><polygon points="449.65 268.73 447.43 273.1 449.6 276.91 452.06 273.11 449.65 268.73" style="fill:#e0e0e0"></polygon><polygon points="449.53 257.27 447.31 261.64 449.49 265.44 451.94 261.64 449.53 257.27" style="fill:#e0e0e0"></polygon><polygon points="449.41 245.8 447.19 250.17 449.37 253.98 451.82 250.18 449.41 245.8" style="fill:#e0e0e0"></polygon><polygon points="449.29 234.34 447.07 238.7 449.25 242.51 451.7 238.71 449.29 234.34" style="fill:#e0e0e0"></polygon><polygon points="448.76 222.13 446.54 226.5 448.71 230.31 451.17 226.51 448.76 222.13" style="fill:#e0e0e0"></polygon><polygon points="324.66 279.54 322.44 283.91 324.61 287.72 327.07 283.92 324.66 279.54" style="fill:#e0e0e0"></polygon><polygon points="323.91 267.8 321.69 272.17 323.86 275.98 326.32 272.18 323.91 267.8" style="fill:#e0e0e0"></polygon><polygon points="323.19 256.5 320.97 260.87 323.14 264.68 325.6 260.88 323.19 256.5" style="fill:#e0e0e0"></polygon><polygon points="322.57 245.41 320.35 249.78 322.52 253.59 324.98 249.79 322.57 245.41" style="fill:#e0e0e0"></polygon><polygon points="321.97 234.41 319.75 238.78 321.93 242.59 324.39 238.79 321.97 234.41" style="fill:#e0e0e0"></polygon><polygon points="331.84 332.05 329.62 336.42 331.79 340.23 334.25 336.43 331.84 332.05" style="fill:#e0e0e0"></polygon><path d="M455,334.33a9.32,9.32,0,0,1,.7,1.07c.46.74,1.14,1.84,1.91,3.19l.07.12-.08.12c-.71,1.13-1.51,2.38-2.36,3.71l-.07.11-.23.36-.21-.38-2.15-3.82-.06-.11.06-.11c.71-1.35,1.34-2.46,1.77-3.19a8.18,8.18,0,0,1,.65-1.07s-.22.53-.57,1.33-.83,1.88-1.45,3.14v-.22l2.2,3.79h-.45l.07-.1,2.42-3.68v.23c-.67-1.26-1.19-2.34-1.58-3.14S455,334.37,455,334.33Z" style="fill:#fafafa"></path><path d="M433.82,334.67a9.08,9.08,0,0,1,.7,1.08c.45.73,1.14,1.83,1.91,3.19l.07.12-.08.11-2.36,3.72-.07.1-.23.36-.21-.37-2.15-3.83-.06-.11.06-.1c.71-1.36,1.34-2.46,1.77-3.19a8,8,0,0,1,.65-1.08c0,.05-.22.54-.58,1.33s-.82,1.88-1.44,3.14v-.21c.66,1.15,1.41,2.43,2.2,3.79h-.45l.07-.1,2.42-3.69v.24c-.67-1.26-1.19-2.35-1.58-3.15S433.82,334.72,433.82,334.67Z" style="fill:#fafafa"></path><path d="M409.51,328.32a9.08,9.08,0,0,1,.7,1.08c.46.73,1.15,1.83,1.91,3.19l.07.11-.07.12-2.37,3.72-.07.1-.23.36-.21-.37-2.15-3.83-.06-.11.06-.11c.71-1.35,1.35-2.45,1.77-3.19a8.18,8.18,0,0,1,.65-1.07c0,.05-.22.53-.57,1.33s-.83,1.88-1.44,3.14v-.22l2.2,3.8h-.44l.06-.11,2.42-3.68v.24c-.67-1.26-1.19-2.35-1.58-3.15S409.51,328.37,409.51,328.32Z" style="fill:#fafafa"></path><path d="M380.9,335.35a9.32,9.32,0,0,1,.7,1.07c.46.74,1.15,1.84,1.91,3.19l.07.12-.07.12-2.37,3.71-.07.11-.23.36-.21-.38-2.15-3.82-.06-.11.06-.11c.71-1.35,1.35-2.46,1.77-3.19a8.18,8.18,0,0,1,.65-1.07s-.22.53-.57,1.33-.83,1.88-1.44,3.14v-.22l2.2,3.79h-.44l.06-.1,2.42-3.68v.23c-.67-1.26-1.19-2.34-1.58-3.14S380.9,335.39,380.9,335.35Z" style="fill:#fafafa"></path><path d="M348.37,339.74a9.32,9.32,0,0,1,.7,1.07c.46.74,1.15,1.84,1.92,3.19l.06.12-.07.12L348.61,348l-.06.11-.24.36-.21-.38L346,344.22l-.07-.11L346,344c.71-1.35,1.35-2.46,1.77-3.19a10,10,0,0,1,.65-1.07s-.22.53-.57,1.33-.83,1.88-1.44,3.14V344l2.2,3.79h-.44l.06-.1,2.42-3.68v.23c-.67-1.26-1.19-2.34-1.58-3.14S348.37,339.78,348.37,339.74Z" style="fill:#fafafa"></path><path d="M363.8,213.45l.29.49.82,1.47,3.14,5.67c2.74,5,6.61,12,11.25,20.41l.06.12-.07.11-16.58,25.77-.66,1-.25.39-.2-.42c-4.66-9.56-9-18.52-12.79-26.22l-.05-.1.05-.1c4.48-8.58,8.23-15.76,10.88-20.82l3-5.79c.34-.64.6-1.14.8-1.5l.27-.5a.84.84,0,0,1-.07.16l-.2.41c-.19.38-.45.91-.79,1.57-.7,1.4-1.7,3.39-3,5.9l-10.56,20.78v-.21c3.77,7.69,8.16,16.65,12.85,26.19l-.45,0c.21-.34.43-.68.65-1l16.64-25.73v.23L368,221.33l-3.08-5.78c-.34-.65-.62-1.16-.82-1.54-.08-.17-.15-.3-.21-.41S363.8,213.46,363.8,213.45Z" style="fill:#fafafa"></path><path d="M398.43,237.72a1.44,1.44,0,0,1,.3.23l.81.71,3.08,2.75.08.08-.06.09c-3.32,5.34-9.36,14.9-16.4,25.94l-.24.37-.21-.39-1.17-2.2L371.8,241l-.06-.12.09-.09,5.73-6,1.57-1.6a4.26,4.26,0,0,1,.58-.53,4.85,4.85,0,0,1-.5.6L377.7,235l-5.61,6.06,0-.21c3.33,6.22,7.91,14.77,13,24.22l1.17,2.2-.45,0c7.05-11,13.17-20.54,16.61-25.8l0,.17c-1.27-1.2-2.27-2.16-3-2.85l-.77-.76C398.51,237.83,398.42,237.73,398.43,237.72Z" style="fill:#fafafa"></path><path d="M413.16,217.12a4.77,4.77,0,0,1,.22.43c.17.33.38.77.65,1.33.59,1.21,1.43,2.92,2.48,5.09l8.9,18.45,0,.11-.07.11-16.28,24.71-.25.37-.2-.39-.21-.4c-4.64-9-9-17.47-12.73-24.73l-.06-.12.07-.11,12.65-18.09,3.54-5c.39-.56.7-1,.93-1.31a5.25,5.25,0,0,1,.31-.43,4.56,4.56,0,0,1-.32.5l-.92,1.38-3.49,5.14-12.32,18.09,0-.24,12.78,24.7.21.4-.45,0L425,242.39l0,.22c-3.54-7.6-6.49-13.93-8.58-18.39-1-2.22-1.83-4-2.41-5.21l-.63-1.39A3.89,3.89,0,0,1,413.16,217.12Z" style="fill:#fafafa"></path><path d="M316.49,325.92a8.28,8.28,0,0,1,.71,1.07c.45.74,1.14,1.84,1.91,3.19l.07.12-.08.12-2.37,3.71-.06.11-.24.36-.21-.38-2.14-3.82-.06-.11.05-.11c.71-1.35,1.35-2.46,1.77-3.19a10,10,0,0,1,.65-1.07s-.22.53-.57,1.33-.82,1.88-1.44,3.14v-.22l2.2,3.8-.44,0,.07-.1,2.41-3.68v.24c-.68-1.26-1.2-2.35-1.58-3.15S316.49,326,316.49,325.92Z" style="fill:#fafafa"></path><path d="M358.47,322.17a1.68,1.68,0,0,1,.89.25,4.13,4.13,0,0,1,1.78,1.77,3.92,3.92,0,0,1,.05,3.72,4.17,4.17,0,0,1-7.6-.22,4,4,0,0,1,.27-3.71,4.07,4.07,0,0,1,1.89-1.66,1.85,1.85,0,0,1,.89-.21c0,.05-.3.12-.8.39a4.24,4.24,0,0,0-1.66,1.67,3.57,3.57,0,0,0-.15,3.31,3.71,3.71,0,0,0,6.74.2,3.57,3.57,0,0,0,0-3.32,4.17,4.17,0,0,0-1.55-1.76C358.77,322.3,358.46,322.21,358.47,322.17Z" style="fill:#fafafa"></path><path d="M313.68,307a1.89,1.89,0,0,1,.88.26,4.09,4.09,0,0,1,1.79,1.77,3.93,3.93,0,0,1,0,3.71,4.17,4.17,0,0,1-7.6-.22,3.89,3.89,0,0,1,.27-3.7,4.2,4.2,0,0,1,1.88-1.67,1.67,1.67,0,0,1,.9-.2s-.31.11-.81.39a4.19,4.19,0,0,0-1.66,1.66,3.59,3.59,0,0,0-.14,3.32,3.72,3.72,0,0,0,6.74.2,3.57,3.57,0,0,0,0-3.32,4.12,4.12,0,0,0-1.56-1.76C314,307.17,313.67,307.08,313.68,307Z" style="fill:#fafafa"></path><path d="M374.62,307.05a1.89,1.89,0,0,1,.88.26,4.08,4.08,0,0,1,1.79,1.77,3.93,3.93,0,0,1,0,3.71,4.17,4.17,0,0,1-7.6-.22,3.91,3.91,0,0,1,.26-3.7,4.15,4.15,0,0,1,1.89-1.67,1.67,1.67,0,0,1,.9-.2s-.31.11-.81.38a4.3,4.3,0,0,0-1.66,1.67,3.59,3.59,0,0,0-.15,3.32,3.71,3.71,0,0,0,6.74.19,3.58,3.58,0,0,0,0-3.32,4.31,4.31,0,0,0-1.56-1.76C374.92,307.18,374.6,307.09,374.62,307.05Z" style="fill:#fafafa"></path><path d="M404.34,304.88a1.89,1.89,0,0,1,.88.26,4.14,4.14,0,0,1,1.79,1.77,3.9,3.9,0,0,1,.05,3.71,4.17,4.17,0,0,1-7.6-.22,3.91,3.91,0,0,1,.27-3.7,4.16,4.16,0,0,1,1.89-1.67,1.75,1.75,0,0,1,.89-.2s-.31.11-.81.39a4.12,4.12,0,0,0-1.65,1.66,3.59,3.59,0,0,0-.15,3.32,3.72,3.72,0,0,0,6.74.2,3.57,3.57,0,0,0,0-3.32,4.17,4.17,0,0,0-1.55-1.76A8.61,8.61,0,0,1,404.34,304.88Z" style="fill:#fafafa"></path><path d="M452,317.39a1.65,1.65,0,0,1,.88.25,4.14,4.14,0,0,1,1.79,1.77,4,4,0,0,1,.05,3.72,4.16,4.16,0,0,1-7.6-.23,3.89,3.89,0,0,1,.27-3.7,4.1,4.1,0,0,1,1.88-1.66,1.9,1.9,0,0,1,.9-.21c0,.05-.31.12-.81.39a4.3,4.3,0,0,0-1.66,1.67,3.57,3.57,0,0,0-.14,3.31,3.71,3.71,0,0,0,6.74.2,3.57,3.57,0,0,0,0-3.32,4.18,4.18,0,0,0-1.56-1.76C452.31,317.52,452,317.43,452,317.39Z" style="fill:#fafafa"></path><path d="M463.31,283.83a1.88,1.88,0,0,1,.89.26,4.14,4.14,0,0,1,1.79,1.77,3.93,3.93,0,0,1,.05,3.71,4.17,4.17,0,0,1-7.6-.22,3.91,3.91,0,0,1,.26-3.7,4.21,4.21,0,0,1,1.89-1.67,1.66,1.66,0,0,1,.9-.2s-.31.11-.81.39a4.13,4.13,0,0,0-1.66,1.66,3.59,3.59,0,0,0-.15,3.32,3.72,3.72,0,0,0,6.74.2,3.61,3.61,0,0,0,.05-3.32,4.29,4.29,0,0,0-1.56-1.77C463.62,284,463.3,283.88,463.31,283.83Z" style="fill:#fafafa"></path><path d="M341.67,313.6s.21,0,.54.12a2.49,2.49,0,0,1,1.15,3.33,2.55,2.55,0,0,1-4.67-.14,2.37,2.37,0,0,1,.18-2.27,2.41,2.41,0,0,1,1.17-1c.34-.13.54-.12.54-.09a3.37,3.37,0,0,0-1.39,1.26,2,2,0,0,0-.06,1.88A2.22,2.22,0,0,0,341,318a2.25,2.25,0,0,0,1.94-1.16,2.05,2.05,0,0,0,.05-1.88A3.44,3.44,0,0,0,341.67,313.6Z" style="fill:#fafafa"></path><path d="M388.2,319s.21,0,.54.11a2.5,2.5,0,0,1,1.11,1.05,2.42,2.42,0,0,1,0,2.28,2.57,2.57,0,0,1-4.68-.13,2.51,2.51,0,0,1,1.35-3.26c.34-.13.54-.11.55-.08a3.26,3.26,0,0,0-1.4,1.25,2.08,2.08,0,0,0-.06,1.89,2.11,2.11,0,0,0,3.81.11,2,2,0,0,0,0-1.89A3.23,3.23,0,0,0,388.2,319Z" style="fill:#fafafa"></path><path d="M425.18,317.46s.21,0,.55.11a2.44,2.44,0,0,1,1.1,1.05,2.37,2.37,0,0,1,.05,2.28,2.56,2.56,0,0,1-4.67-.13,2.37,2.37,0,0,1,.18-2.27,2.46,2.46,0,0,1,1.16-1c.34-.13.55-.11.55-.08a3.21,3.21,0,0,0-1.39,1.25,2.08,2.08,0,0,0-.07,1.89,2.12,2.12,0,0,0,3.82.11,2,2,0,0,0,0-1.89A3.23,3.23,0,0,0,425.18,317.46Z" style="fill:#fafafa"></path><path d="M440.56,307s.21,0,.55.11a2.44,2.44,0,0,1,1.1,1.05,2.37,2.37,0,0,1,.05,2.28,2.56,2.56,0,0,1-4.67-.13,2.37,2.37,0,0,1,.18-2.27,2.41,2.41,0,0,1,1.16-1c.34-.13.55-.11.55-.08a3.21,3.21,0,0,0-1.39,1.25,2.06,2.06,0,0,0-.07,1.88,2.11,2.11,0,0,0,3.82.12,2,2,0,0,0,0-1.89A3.23,3.23,0,0,0,440.56,307Z" style="fill:#fafafa"></path><path d="M465.78,306.31s.21,0,.54.11a2.49,2.49,0,0,1,1.15,3.33,2.55,2.55,0,0,1-4.67-.14,2.37,2.37,0,0,1,.18-2.27,2.41,2.41,0,0,1,1.17-1c.34-.13.54-.12.54-.09a3.37,3.37,0,0,0-1.39,1.26,2,2,0,0,0-.06,1.88,2.1,2.1,0,0,0,3.81.11,2.05,2.05,0,0,0,.05-1.88A3.28,3.28,0,0,0,465.78,306.31Z" style="fill:#fafafa"></path><path d="M461.56,264.37s.21,0,.54.11a2.5,2.5,0,0,1,1.11,1,2.42,2.42,0,0,1,.05,2.28,2.56,2.56,0,0,1-4.68-.14,2.47,2.47,0,0,1,1.35-3.25c.34-.13.54-.11.55-.08a3.21,3.21,0,0,0-1.4,1.25,2,2,0,0,0-.06,1.88,2.1,2.1,0,0,0,3.81.11,2.05,2.05,0,0,0,.05-1.88A3.23,3.23,0,0,0,461.56,264.37Z" style="fill:#fafafa"></path><path d="M311.15,283.66s.21,0,.54.12a2.48,2.48,0,0,1,1.16,3.33,2.56,2.56,0,0,1-4.68-.14,2.4,2.4,0,0,1,.19-2.27,2.35,2.35,0,0,1,1.16-1c.34-.13.54-.12.55-.09a3.43,3.43,0,0,0-1.4,1.26,2.06,2.06,0,0,0-.06,1.88,2.25,2.25,0,0,0,1.87,1.27,2.22,2.22,0,0,0,1.94-1.16,2,2,0,0,0,.05-1.88A3.3,3.3,0,0,0,311.15,283.66Z" style="fill:#fafafa"></path><polygon points="313.17 250.47 315.41 312.09 457.49 310.18 458.31 228.84 452.54 218.47 454.14 303.04 320.97 304.22 318.37 238.08 313.17 250.47" style="opacity:0.30000000000000004"></polygon><path d="M308.43,362.78a8.56,8.56,0,0,1-.49-2.18c-.21-1.36-.43-3.25-.54-5.35a50.29,50.29,0,0,1,0-5.38,8.23,8.23,0,0,1,.26-2.22c.15,0,0,3.4.26,7.57S308.58,362.76,308.43,362.78Z" style="fill:#fafafa"></path><path d="M313.36,361.93a35,35,0,0,1-.6-12.79c.16,0,.06,2.87.23,6.4S313.51,361.9,313.36,361.93Z" style="fill:#fafafa"></path><path d="M318.91,363a11.18,11.18,0,0,1-.52-2.58c-.24-1.61-.47-3.85-.58-6.34s-.08-4.73,0-6.35a11.64,11.64,0,0,1,.29-2.63,15.37,15.37,0,0,1,.08,2.63c0,1.63,0,3.86.14,6.33s.28,4.7.42,6.31A16.32,16.32,0,0,1,318.91,363Z" style="fill:#fafafa"></path><path d="M323.14,360.65A30.34,30.34,0,0,1,322,354a31.88,31.88,0,0,1-.22-6.77c.15,0,.35,3,.73,6.71S323.29,360.63,323.14,360.65Z" style="fill:#fafafa"></path><path d="M327.84,361.08a65,65,0,0,1-1.29-8.18,66,66,0,0,1-.77-8.24,64.19,64.19,0,0,1,1.29,8.18A68.36,68.36,0,0,1,327.84,361.08Z" style="fill:#fafafa"></path><path d="M334.66,361.93a7.53,7.53,0,0,1-.73-2.07,41.33,41.33,0,0,1-1.45-10.45,7.68,7.68,0,0,1,.14-2.19c.15,0,.2,3.34.77,7.39S334.81,361.89,334.66,361.93Z" style="fill:#fafafa"></path><path d="M339.39,361.28a24.15,24.15,0,0,1-1.1-10.22c.15,0,.21,2.3.52,5.11S339.53,361.25,339.39,361.28Z" style="fill:#fafafa"></path><path d="M347.48,364.05a21.1,21.1,0,0,1-1.12-10.44c.16,0,.1,2.36.41,5.24S347.63,364,347.48,364.05Z" style="fill:#fafafa"></path><path d="M354.06,366.19a18.25,18.25,0,0,1-.89-5.4,17.91,17.91,0,0,1,.28-5.47c.15,0,.07,2.44.24,5.44S354.21,366.16,354.06,366.19Z" style="fill:#fafafa"></path><path d="M360.08,370.44a47.31,47.31,0,0,1-1-6.89,45.78,45.78,0,0,1-.45-6.94,94.44,94.44,0,0,1,1.43,13.83Z" style="fill:#fafafa"></path><path d="M366.45,369.16a8.79,8.79,0,0,1-.53-2.2c-.25-1.38-.52-3.29-.73-5.41s-.3-4.06-.32-5.46a8.66,8.66,0,0,1,.09-2.26,10.46,10.46,0,0,1,.27,2.24c.14,1.59.3,3.41.48,5.43s.41,3.82.57,5.41A10.65,10.65,0,0,1,366.45,369.16Z" style="fill:#fafafa"></path><path d="M373.6,369a53.69,53.69,0,0,1-1.21-7.42,53,53,0,0,1-.7-7.49,55.56,55.56,0,0,1,1.21,7.42A54.85,54.85,0,0,1,373.6,369Z" style="fill:#fafafa"></path><path d="M380.57,368.09a12.51,12.51,0,0,1-.67-2.63c-.32-1.64-.69-3.92-.95-6.46s-.36-4.84-.37-6.52a12.47,12.47,0,0,1,.12-2.7,15.54,15.54,0,0,1,.25,2.69c.1,1.66.26,4,.52,6.48s.56,4.8.8,6.45A15.17,15.17,0,0,1,380.57,368.09Z" style="fill:#fafafa"></path><path d="M388,365.75a80.69,80.69,0,0,1-1.16-9,76.88,76.88,0,0,1-.64-9.08,81.54,81.54,0,0,1,1.16,9A82.43,82.43,0,0,1,388,365.75Z" style="fill:#fafafa"></path><path d="M394.26,362.58a11.07,11.07,0,0,1-.58-2.52,44.89,44.89,0,0,1-.55-6.21,46.07,46.07,0,0,1,.28-6.22,10.14,10.14,0,0,1,.47-2.54,17.63,17.63,0,0,1-.1,2.57c-.1,1.58-.18,3.77-.13,6.18s.23,4.59.4,6.17A15.65,15.65,0,0,1,394.26,362.58Z" style="fill:#fafafa"></path><path d="M400.28,363a13.49,13.49,0,0,1-.73-2.84c-.36-1.77-.77-4.24-1.06-7s-.39-5.25-.4-7.06a15.7,15.7,0,0,1,.12-2.93,18.3,18.3,0,0,1,.25,2.92c.1,1.8.27,4.28.55,7s.63,5.2.9,7A19.83,19.83,0,0,1,400.28,363Z" style="fill:#fafafa"></path><path d="M405.44,362.13a12.72,12.72,0,0,1-.58-2.64c-.28-1.64-.6-3.93-.84-6.46s-.36-4.84-.4-6.51a14.6,14.6,0,0,1,.07-2.71,14.4,14.4,0,0,1,.3,2.69c.13,1.66.31,3.95.55,6.48s.5,4.81.68,6.46A15.29,15.29,0,0,1,405.44,362.13Z" style="fill:#fafafa"></path><path d="M412.57,362.36a81.39,81.39,0,0,1-1.1-9.14,77.89,77.89,0,0,1-.58-9.19,84.28,84.28,0,0,1,1.1,9.14A83.42,83.42,0,0,1,412.57,362.36Z" style="fill:#fafafa"></path><path d="M420.41,362.56a61.33,61.33,0,0,1-.81-8.08,60.68,60.68,0,0,1-.29-8.11,65.41,65.41,0,0,1,.81,8.08A65,65,0,0,1,420.41,362.56Z" style="fill:#fafafa"></path><path d="M426.25,360.65a78.74,78.74,0,0,1-.54-12.78,78.74,78.74,0,0,1,.54,12.78Z" style="fill:#fafafa"></path><path d="M431.59,359.38A29,29,0,0,1,430,347.86c.15,0,.29,2.6.74,5.77S431.73,359.34,431.59,359.38Z" style="fill:#fafafa"></path><path d="M437.74,359.8a67.8,67.8,0,0,1-1.05-11.72,33.55,33.55,0,0,1,.79,5.84A32.3,32.3,0,0,1,437.74,359.8Z" style="fill:#fafafa"></path><path d="M444.38,359.16a21.3,21.3,0,0,1-.85-4.54,19.82,19.82,0,0,1-.33-4.61,21,21,0,0,1,.85,4.54A19.82,19.82,0,0,1,444.38,359.16Z" style="fill:#fafafa"></path><path d="M452.92,359A13.58,13.58,0,0,1,451,348.69c.16,0-.1,2.38.44,5.22S453.06,358.88,452.92,359Z" style="fill:#fafafa"></path><path d="M456.66,360a37.61,37.61,0,0,1-.88-6.16,36.57,36.57,0,0,1-.36-6.2,38.45,38.45,0,0,1,.88,6.15A36.65,36.65,0,0,1,456.66,360Z" style="fill:#fafafa"></path><path d="M464.76,358.75a7.16,7.16,0,0,1-.51-1.93,45.63,45.63,0,0,1-.8-9.53,7.31,7.31,0,0,1,.18-2c.16,0,.17,3,.49,6.72S464.91,358.72,464.76,358.75Z" style="fill:#fafafa"></path><path d="M470.69,358.32a9.6,9.6,0,0,1-.5-2.21c-.23-1.38-.47-3.3-.61-5.43a54.53,54.53,0,0,1-.07-5.46,8.76,8.76,0,0,1,.22-2.26,10.76,10.76,0,0,1,.14,2.26c0,1.39.1,3.31.23,5.43s.32,4,.45,5.41A10.07,10.07,0,0,1,470.69,358.32Z" style="fill:#fafafa"></path><path d="M344.85,235.59a1.25,1.25,0,0,0,0-2.5,1.25,1.25,0,0,0,0,2.5Z" style="fill:#e0e0e0"></path><path d="M344.69,244.82a1.25,1.25,0,0,0,0-2.5,1.25,1.25,0,0,0,0,2.5Z" style="fill:#e0e0e0"></path><path d="M344.85,253.07a1.25,1.25,0,0,0,0-2.5,1.25,1.25,0,0,0,0,2.5Z" style="fill:#e0e0e0"></path><path d="M345.49,260.69a1.25,1.25,0,0,0,0-2.5,1.25,1.25,0,0,0,0,2.5Z" style="fill:#e0e0e0"></path><path d="M345.8,268a1.25,1.25,0,0,0,0-2.5,1.25,1.25,0,0,0,0,2.5Z" style="fill:#e0e0e0"></path><path d="M346.12,274.33a1.25,1.25,0,0,0,0-2.5,1.25,1.25,0,0,0,0,2.5Z" style="fill:#e0e0e0"></path><path d="M352,275a1.25,1.25,0,0,0,0-2.5,1.25,1.25,0,0,0,0,2.5Z" style="fill:#e0e0e0"></path><path d="M358.5,274.65a1.25,1.25,0,0,0,0-2.5,1.25,1.25,0,0,0,0,2.5Z" style="fill:#e0e0e0"></path><path d="M366.27,274.65a1.25,1.25,0,0,0,0-2.5,1.25,1.25,0,0,0,0,2.5Z" style="fill:#e0e0e0"></path><path d="M374.21,274.49a1.25,1.25,0,0,0,0-2.5,1.25,1.25,0,0,0,0,2.5Z" style="fill:#e0e0e0"></path><path d="M382.3,272h-.16a1.25,1.25,0,0,0,0,2.5h.16a1.25,1.25,0,0,0,0-2.5Z" style="fill:#e0e0e0"></path><path d="M390.22,273.24v-.16a1.25,1.25,0,0,0-2.5,0v.16a1.25,1.25,0,0,0,2.5,0Z" style="fill:#e0e0e0"></path><path d="M396.11,274.65a1.25,1.25,0,0,0,0-2.5,1.25,1.25,0,0,0,0,2.5Z" style="fill:#e0e0e0"></path><path d="M403.41,274.49a1.25,1.25,0,0,0,0-2.5,1.25,1.25,0,0,0,0,2.5Z" style="fill:#e0e0e0"></path><path d="M410.23,275a1.25,1.25,0,0,0,0-2.5,1.25,1.25,0,0,0,0,2.5Z" style="fill:#e0e0e0"></path><path d="M418.14,273.56v-.16a1.25,1.25,0,0,0-2.5,0v.16a1.25,1.25,0,0,0,2.5,0Z" style="fill:#e0e0e0"></path><path d="M423.88,275a1.25,1.25,0,0,0,0-2.5,1.25,1.25,0,0,0,0,2.5Z" style="fill:#e0e0e0"></path><path d="M426.73,270.84a1.25,1.25,0,0,0,0-2.5,1.25,1.25,0,0,0,0,2.5Z" style="fill:#e0e0e0"></path><path d="M426.89,264.18a1.25,1.25,0,0,0,0-2.5,1.25,1.25,0,0,0,0,2.5Z" style="fill:#e0e0e0"></path><path d="M427.77,256.33l-.15-.16a1.25,1.25,0,0,0-1.77,1.77l.16.16a1.25,1.25,0,0,0,1.76-1.77Z" style="fill:#e0e0e0"></path><path d="M427.53,251.64a1.25,1.25,0,0,0,0-2.5,1.25,1.25,0,0,0,0,2.5Z" style="fill:#e0e0e0"></path><path d="M426.89,246.09a1.25,1.25,0,0,0,0-2.5,1.25,1.25,0,0,0,0,2.5Z" style="fill:#e0e0e0"></path><path d="M427.05,238.47a1.25,1.25,0,0,0,0-2.5,1.25,1.25,0,0,0,0,2.5Z" style="fill:#e0e0e0"></path><path d="M427.21,231.33a1.25,1.25,0,0,0,0-2.5,1.25,1.25,0,0,0,0,2.5Z" style="fill:#e0e0e0"></path><path d="M427.05,225.14a1.25,1.25,0,0,0,0-2.5,1.25,1.25,0,0,0,0,2.5Z" style="fill:#e0e0e0"></path><path d="M426.89,218.16a1.25,1.25,0,0,0,0-2.5,1.25,1.25,0,0,0,0,2.5Z" style="fill:#e0e0e0"></path><path d="M427.21,211.21a1.25,1.25,0,0,0,0-2.5,1.25,1.25,0,0,0,0,2.5Z" style="fill:#e0e0e0"></path><path d="M346.1,228.17V228a1.25,1.25,0,0,0-2.5,0v.15a1.25,1.25,0,0,0,2.5,0Z" style="fill:#e0e0e0"></path><path d="M346.05,222.55l.16-.16a1.25,1.25,0,0,0-1.77-1.76l-.16.15a1.25,1.25,0,0,0,1.77,1.77Z" style="fill:#e0e0e0"></path><path d="M346.28,215.18h-.16a1.25,1.25,0,0,0,0,2.5h.16a1.25,1.25,0,0,0,0-2.5Z" style="fill:#e0e0e0"></path><path d="M346.84,208.79h-.15a1.25,1.25,0,0,0,0,2.5h.15a1.25,1.25,0,0,0,0-2.5Z" style="fill:#e0e0e0"></path><path d="M370.56,220.72s-.07-.05-.18-.18l-.49-.56c-.43-.49-1.07-1.21-1.91-2.12a76.58,76.58,0,0,0-7.61-7.19,24.37,24.37,0,0,0-6.1-3.77,16.78,16.78,0,0,0-8.07-1,17.31,17.31,0,0,0-8.34,3.28,32.38,32.38,0,0,0-6.77,7,89.89,89.89,0,0,0-5.26,8.32c-1.58,2.77-3,5.49-4.34,8.1-2.64,5.23-4.77,10.06-6.46,14.16s-3,7.44-3.85,9.76c-.43,1.13-.76,2-1,2.68-.11.28-.2.5-.27.69a.88.88,0,0,1-.11.23.75.75,0,0,1,.06-.25l.22-.71c.2-.62.51-1.54.92-2.71.81-2.34,2-5.72,3.69-9.83s3.76-9,6.38-14.23c1.31-2.63,2.75-5.36,4.33-8.14a87.37,87.37,0,0,1,5.28-8.38,32.73,32.73,0,0,1,6.89-7.14,17.89,17.89,0,0,1,8.59-3.34,17.15,17.15,0,0,1,8.28,1.07,24.55,24.55,0,0,1,6.17,3.88,71.9,71.9,0,0,1,7.54,7.34c.81.94,1.43,1.68,1.83,2.2l.45.59A.82.82,0,0,1,370.56,220.72Z" style="fill:#263238"></path><g style="opacity:0.30000000000000004"><path d="M385,245a29.13,29.13,0,0,0,28.31-3.31,19.7,19.7,0,0,0,7.43-9.78c1.2-4,.48-8.68-2.44-11.65a4.18,4.18,0,0,0-3.78-1.48,5.3,5.3,0,0,0-2.74,2.47c-6.39,9.23-18,16.32-26.5,23.62"></path></g><path d="M358.4,326.74l-.52-5.64L373,319.87l.94,8.78-.92.17c-4.11.72-20.91,3.36-23.77,2.85C346,331.1,358.4,326.74,358.4,326.74Z" style="fill:#455a64"></path><path d="M374.07,328.28a1,1,0,0,1-.26.06l-.73.13-2.71.44c-2.28.36-5.45.81-8.95,1.23s-6.69.73-9,.92l-2.73.21-.75.05h-.26l.26,0,.74-.08,2.73-.26c2.3-.23,5.48-.56,9-1s6.67-.85,9-1.17l2.71-.39.74-.1Z" style="fill:#263238"></path><path d="M354,331.09a6,6,0,0,0-.66-1.24,6.8,6.8,0,0,0-1.05-.93,2.07,2.07,0,0,1,1.19.82A2,2,0,0,1,354,331.09Z" style="fill:#263238"></path><path d="M358.11,328.33s-.28-.2-.54-.52-.44-.6-.4-.63.28.2.54.51S358.15,328.3,358.11,328.33Z" style="fill:#263238"></path><path d="M359.24,327.54s-.28-.09-.56-.29-.5-.39-.47-.43.29.08.57.28S359.27,327.5,359.24,327.54Z" style="fill:#263238"></path><path d="M359.84,326a3.46,3.46,0,0,1-1.56.2,3.46,3.46,0,0,1,1.56-.2Z" style="fill:#263238"></path><path d="M360,325a1.5,1.5,0,0,1-.84.36,1.64,1.64,0,0,1-.92,0,4.36,4.36,0,0,1,.88-.17A4.86,4.86,0,0,1,360,325Z" style="fill:#263238"></path><path d="M357.45,327.08a2.84,2.84,0,0,1-1,.11,6.14,6.14,0,0,1-1.05-.1,3.33,3.33,0,0,1-.61-.17.55.55,0,0,1-.27-.27.39.39,0,0,1,.1-.41,1.79,1.79,0,0,1,2.24.26,1.92,1.92,0,0,1,.39.6.48.48,0,0,1,.05.26,2.8,2.8,0,0,0-.53-.77,1.77,1.77,0,0,0-.89-.43,1.51,1.51,0,0,0-1.13.21c-.14.13-.06.31.12.39a2.67,2.67,0,0,0,.57.16,6.17,6.17,0,0,0,1,.14C357.08,327.1,357.44,327.05,357.45,327.08Z" style="fill:#263238"></path><path d="M357.2,327.16a1,1,0,0,1-.19-.65,1.67,1.67,0,0,1,.18-.74,1,1,0,0,1,.74-.58.38.38,0,0,1,.35.41.87.87,0,0,1-.11.44,2.7,2.7,0,0,1-.38.64,1.5,1.5,0,0,1-.51.46s.17-.2.4-.54A2.74,2.74,0,0,0,358,326c.1-.22.15-.6-.1-.61s-.46.27-.58.48a1.65,1.65,0,0,0-.2.66A4.4,4.4,0,0,0,357.2,327.16Z" style="fill:#263238"></path><path d="M373.27,324.23s-.43,0-1.1.17a4.71,4.71,0,0,0-3.54,3.59c-.15.66-.13,1.1-.16,1.1a1,1,0,0,1,0-.3,4.82,4.82,0,0,1,.07-.83,4.68,4.68,0,0,1,1.25-2.41,4.73,4.73,0,0,1,2.4-1.28,4,4,0,0,1,.82-.08C373.17,324.2,373.27,324.21,373.27,324.23Z" style="fill:#263238"></path><path d="M366.4,327.94a8.51,8.51,0,0,1-2.16.48,8.11,8.11,0,0,1-2.2.08c0-.05,1-.11,2.18-.26S366.39,327.89,366.4,327.94Z" style="fill:#263238"></path><path d="M369.33,327.59s-.05.21-.13.45-.1.44-.15.44-.11-.22,0-.49S369.3,327.56,369.33,327.59Z" style="fill:#263238"></path><path d="M370.27,326.08s0,.2-.17.37-.28.3-.32.27,0-.2.18-.38S370.23,326.05,370.27,326.08Z" style="fill:#263238"></path><path d="M371.78,325.26c0,.06-.2.08-.41.18s-.36.24-.4.21.06-.25.32-.37S371.79,325.22,371.78,325.26Z" style="fill:#263238"></path><path d="M372.87,324.83c0,.05-.05.14-.17.2s-.23.08-.26,0,.06-.13.17-.19S372.85,324.79,372.87,324.83Z" style="fill:#263238"></path><path d="M385,215.44s-37.31,11.86-39.22,21.93c-2.71,14.3,7.37,87.07,7.37,87.07l23.19-2.14-4.24-72.65s40.31-10.33,41.29-18.85c1.32-11.45-1-16.66-1-16.66Z" style="fill:#263238"></path><path d="M362.22,169.83l-3.75,38.9c2.41,1.83,4.55,3.39,6.94,5.53l47,1.78-.29-35.83,3-31.57c-2.59-14.46-21.87-14.78-21.87-14.78l-15.9-.26a24.87,24.87,0,0,0-7.76.55A21.07,21.07,0,0,0,356.49,143,35,35,0,0,0,351,157Z" style="fill:#FF725E"></path><path d="M361.43,154.52a3,3,0,0,1,0,.56c0,.42-.09.94-.14,1.57-.13,1.37-.3,3.36-.45,5.81-.33,4.91-.56,11.7-.79,19.2s-.44,14.31-.77,19.23c-.16,2.45-.34,4.44-.49,5.81-.08.63-.15,1.15-.2,1.57a2,2,0,0,1-.11.55,3.44,3.44,0,0,1,0-.56c0-.42.06-.94.1-1.58.09-1.37.21-3.36.32-5.81.23-4.92.4-11.71.62-19.22s.52-14.31.94-19.22c.2-2.45.43-4.43.61-5.8.1-.63.18-1.15.25-1.57A2.15,2.15,0,0,1,361.43,154.52Z" style="fill:#263238"></path><path d="M401.65,207.43c-13.89-.43-36.33-4-36.33-4l.05-2.13,39.37-2,4-15.59s3.59-20.73,3.63-20.86,1.2-4.08,1.2-4.08l-.26,7.94-1.18,13.53-.07,9,.13,7.8A10.22,10.22,0,0,1,401.65,207.43Z" style="opacity:0.30000000000000004"></path><path d="M355.69,189.2l.37,14.23s30.94.79,42.83-.75a7.17,7.17,0,0,0,4.28-1.79c3.93-3.54,8.19-28.81,10.72-46.66,1-6.9-3.66-12-10.61-12.57h0a12.39,12.39,0,0,0-13.18,10.5l-4.64,30.56Z" style="fill:#FF725E"></path><path d="M386.79,188.18a18.62,18.62,0,0,0-.5-3.38,17.61,17.61,0,0,0-1.6-3,5.72,5.72,0,0,1,2.1,6.4Z" style="fill:#263238"></path><path d="M390.1,186.11a9.26,9.26,0,0,0-1.89-3.11,9.5,9.5,0,0,0-3.2-1.76c0-.06.45-.12,1.14,0a5.39,5.39,0,0,1,2.42,1.34A5.45,5.45,0,0,1,390,185C390.21,185.66,390.16,186.11,390.1,186.11Z" style="fill:#263238"></path><path d="M414.61,146.48a11.72,11.72,0,0,0-2.49,0c-1.61.18-3.73,1.19-6.32,2.49a16.43,16.43,0,0,1-4.5,1.61,9.67,9.67,0,0,1-1.33.11,9.22,9.22,0,0,1-1.37-.14,13.4,13.4,0,0,1-2.69-.93,27.62,27.62,0,0,0-2.69-1.11,5.57,5.57,0,0,0-2.89-.21c-2,.43-3.55,2.12-5.78,2.79a6.59,6.59,0,0,1-3.36,0,29.63,29.63,0,0,1-3.06-1,13.66,13.66,0,0,0-2.9-.76,8.76,8.76,0,0,0-2.85.19c-1.84.41-3.52,1.13-5.2,1.54a7.19,7.19,0,0,1-4.78-.18,15.16,15.16,0,0,1-3.17-2.34,7.64,7.64,0,0,0-2.48-1.48,3.58,3.58,0,0,0-2.43,0,1.78,1.78,0,0,1,.61-.26,3.6,3.6,0,0,1,1.88.07,7.39,7.39,0,0,1,2.6,1.45,15.85,15.85,0,0,0,3.14,2.22,6.88,6.88,0,0,0,4.52.1c1.63-.41,3.31-1.15,5.21-1.59a9.34,9.34,0,0,1,3-.21,14,14,0,0,1,3,.77c1,.34,2,.72,3,1a6.18,6.18,0,0,0,3.11,0c2-.59,3.64-2.29,5.8-2.79a6.11,6.11,0,0,1,3.16.23,27.49,27.49,0,0,1,2.74,1.15,12.89,12.89,0,0,0,2.58.92,9.63,9.63,0,0,0,1.29.15,10.52,10.52,0,0,0,1.26-.09,17.35,17.35,0,0,0,4.41-1.52c2.59-1.25,4.79-2.24,6.45-2.36a4.52,4.52,0,0,1,1.09,0,3,3,0,0,1,.79.09A3.64,3.64,0,0,1,414.61,146.48Z" style="fill:#f5f5f5"></path><path d="M414.38,156.08s-.23-.08-.67-.14a3.21,3.21,0,0,0-1.86.35c-.76.35-1.6,1-2.75,1.48a4.29,4.29,0,0,1-2,.35,5.79,5.79,0,0,1-2.16-.6c-1.41-.64-2.75-1.73-4.44-2.17a4.82,4.82,0,0,0-2.63.08,11.47,11.47,0,0,0-2.6,1.25c-1.71,1-3.42,2.44-5.71,2.89a6,6,0,0,1-3.42-.4,22.27,22.27,0,0,1-3.08-1.66,13.13,13.13,0,0,0-3-1.48,6.44,6.44,0,0,0-3.2-.14,55.27,55.27,0,0,0-6,2,10.47,10.47,0,0,1-3,.52,7.36,7.36,0,0,1-2.8-.56,24.94,24.94,0,0,1-4.35-2.54,13.11,13.11,0,0,0-3.63-1.82,6,6,0,0,0-3-.09,4.65,4.65,0,0,0-2.25,1.27,2.76,2.76,0,0,1,.45-.53,4.11,4.11,0,0,1,1.75-.94,6,6,0,0,1,3.14,0A13.06,13.06,0,0,1,361,155a25.87,25.87,0,0,0,4.3,2.45,7,7,0,0,0,2.64.5,10.18,10.18,0,0,0,2.83-.51,54,54,0,0,1,6-2,7.18,7.18,0,0,1,3.44.15,14.19,14.19,0,0,1,3.16,1.53,21.47,21.47,0,0,0,3,1.63,5.63,5.63,0,0,0,3.15.38c2.09-.4,3.8-1.77,5.54-2.8a11.44,11.44,0,0,1,2.72-1.28,5.39,5.39,0,0,1,2.87-.06c1.81.51,3.13,1.63,4.49,2.26a5.43,5.43,0,0,0,2,.6,4.29,4.29,0,0,0,1.84-.29c1.1-.44,2-1.06,2.77-1.4a3.19,3.19,0,0,1,2-.26A2,2,0,0,1,414.38,156.08Z" style="fill:#f5f5f5"></path><path d="M347.72,203.34l8.24-1L355.68,190l-3.85-.11-.81-.15c-.77-.42-1.68-1-2.69-1.6A9.32,9.32,0,0,1,346,186a17.27,17.27,0,0,1-1.95-3c0-.08-.07-.18-.08-.25s0-.19-.13-.32c-.54-.84-1.93-.95-2.24,0s.49,3.74,2.68,6.4l.09.13-3.79.64c-1.94.07-3.49,2.56-.56,3.71a3.78,3.78,0,0,0-.57,2.26c.11.76,1.62,1.84,1.62,1.84s.47,2.35.65,3.53S347.72,203.34,347.72,203.34Z" style="fill:#b78876"></path><path d="M405.93,195.7a1,1,0,0,1-.05.26l-.22.74a12.73,12.73,0,0,1-1.2,2.73,6.39,6.39,0,0,1-3.67,3,11.82,11.82,0,0,1-3,.4l-3.37.17c-4.76.22-10.47.5-16.94.69s-13.69.34-21.43,0h-.23v-.23c-.12-4.57-.25-9.33-.38-14.23V189l.21-.05,5.92-1.39,14.49-3.4,3.48-.81a25.24,25.24,0,0,0,3.34-.94,6.33,6.33,0,0,0,2.72-1.81,6.51,6.51,0,0,0,1.23-2.95c.68-4.36,1.34-8.5,1.95-12.38s1.09-7.51,1.8-10.79a22.13,22.13,0,0,1,3.41-8.35,13,13,0,0,1,5.29-4.27,9,9,0,0,1,4.23-.74,5.93,5.93,0,0,1,1.11.17,1.84,1.84,0,0,1,.37.1c0,.05-.5-.13-1.48-.17a9.38,9.38,0,0,0-4.15.83,12.88,12.88,0,0,0-5.13,4.25,21.93,21.93,0,0,0-3.29,8.26c-.68,3.25-1.12,6.89-1.74,10.77s-1.23,8-1.9,12.41a6.05,6.05,0,0,1-4.24,5.14,26.83,26.83,0,0,1-3.4,1l-3.48.82-14.49,3.4-5.92,1.39.2-.26c.12,4.91.25,9.67.36,14.23l-.24-.24c7.72.34,14.94.22,21.4.06s12.18-.4,16.93-.58l3.38-.13a11.72,11.72,0,0,0,2.94-.36,6.2,6.2,0,0,0,3.59-2.83,13.67,13.67,0,0,0,1.27-2.67l.25-.73C405.89,195.78,405.93,195.7,405.93,195.7Z" style="fill:#263238"></path><path d="M382.88,144.67h0a9.07,9.07,0,0,1-9.06-9.17c0-3.15.09-5.88.09-5.88s-7.29-.68-7.83-7.89-.3-23.86-.3-23.86h0a25.15,25.15,0,0,1,25.4,1.61l1.12.76L392,135.69A9.07,9.07,0,0,1,382.88,144.67Z" style="fill:#b78876"></path><path d="M373.89,129.52a16.78,16.78,0,0,0,9.24-3.26s-1.9,5.33-9.14,5.13Z" style="fill:#aa6550"></path><path d="M367.68,109.42a1,1,0,0,0,1,1,1,1,0,0,0,1-.92,1,1,0,0,0-1-1A1,1,0,0,0,367.68,109.42Z" style="fill:#263238"></path><path d="M367.46,108.28c.13.13.89-.44,2-.43s1.89.54,2,.41-.07-.3-.42-.55a2.75,2.75,0,0,0-1.61-.49,2.68,2.68,0,0,0-1.57.5C367.51,108,367.4,108.22,367.46,108.28Z" style="fill:#263238"></path><path d="M378.34,109.67a1,1,0,0,0,1,1,1,1,0,0,0,1-.91,1,1,0,0,0-1-1A1,1,0,0,0,378.34,109.67Z" style="fill:#263238"></path><path d="M378.16,108.48c.13.13.89-.43,2-.43s1.89.55,2,.41-.07-.29-.42-.55a2.82,2.82,0,0,0-1.61-.49,2.61,2.61,0,0,0-1.57.51C378.21,108.18,378.1,108.42,378.16,108.48Z" style="fill:#263238"></path><path d="M374.21,116.55a7.54,7.54,0,0,0-1.77-.31c-.28,0-.54-.09-.59-.28a1.5,1.5,0,0,1,.19-.82l.82-2.12a37.25,37.25,0,0,0,1.85-5.53,36,36,0,0,0-2.29,5.37c-.27.74-.54,1.45-.79,2.13a1.65,1.65,0,0,0-.14,1.09.69.69,0,0,0,.46.41,2.09,2.09,0,0,0,.47.06A6.51,6.51,0,0,0,374.21,116.55Z" style="fill:#263238"></path><path d="M377.41,117.31c-.17,0-.18,1.17-1.19,2s-2.27.71-2.27.87.28.23.81.25a3,3,0,0,0,1.9-.67,2.53,2.53,0,0,0,.92-1.68C377.63,117.59,377.49,117.3,377.41,117.31Z" style="fill:#263238"></path><path d="M377.88,104.22c.11.29,1.19.15,2.47.31s2.31.5,2.48.23-.1-.4-.52-.69a4.38,4.38,0,0,0-3.77-.42C378.07,103.84,377.83,104.08,377.88,104.22Z" style="fill:#263238"></path><path d="M367.86,105.13c.19.25.94,0,1.84,0s1.67.16,1.85-.1-.05-.37-.38-.6a2.5,2.5,0,0,0-1.5-.41,2.56,2.56,0,0,0-1.47.5C367.88,104.75,367.78,105,367.86,105.13Z" style="fill:#263238"></path><path d="M386,104.54a11.83,11.83,0,0,1,0,3,5.9,5.9,0,0,0,.35,3,2.42,2.42,0,0,0,2.41,1.47,3.06,3.06,0,0,0,2-2.07,9.06,9.06,0,0,0,.54-5" style="fill:#263238"></path><path d="M365.73,106.53s.74-6.47,6.45-7.32,20,9.55,20,9.55l1.06,3.28c3.29-3,5.49-10.32,4.2-16.87-.69-3.52-3.4-5-5.17-6.57-4.95-4.51-18.92-9.53-23.61-4-1.09,1.3-4.79,5.52-5.78,9.48-1,4.12-.1,9.32,2.82,12.41Z" style="fill:#FF725E"></path><path d="M371.44,82.79a9.36,9.36,0,0,0-2.31,3.61A14,14,0,0,0,368.4,91a7.94,7.94,0,0,0,1.87,5.21,6.77,6.77,0,0,0,2.34,1.71c.86.43,1.72.81,2.54,1.18l4.36,1.93c1.24.56,2.22,1,2.89,1.42a4.17,4.17,0,0,1,1,.65,6.66,6.66,0,0,1-1.08-.47c-.69-.31-1.7-.75-2.95-1.27L375,99.56c-.83-.36-1.69-.73-2.58-1.16a7.24,7.24,0,0,1-2.51-1.83A8.37,8.37,0,0,1,367.92,91a13.6,13.6,0,0,1,.86-4.74,8.11,8.11,0,0,1,1.72-2.76,4.14,4.14,0,0,1,.67-.58C371.34,82.83,371.43,82.77,371.44,82.79Z" style="fill:#263238"></path><path d="M363.22,102.15a3.12,3.12,0,0,1,.22-1.38,8.82,8.82,0,0,1,1.59-3,12.23,12.23,0,0,1,2.53-2.22c.72-.47,1.2-.7,1.24-.64s-.37.4-1,.94a17.52,17.52,0,0,0-2.34,2.25C363.81,100.08,363.4,102.21,363.22,102.15Z" style="fill:#263238"></path><path d="M394.89,103.38a15.07,15.07,0,0,0-10.44-11.73,27.31,27.31,0,0,0-11.55-1.08c-1.49.15-2.7.33-3.53.46a6.51,6.51,0,0,1-1.31.16,6.49,6.49,0,0,1,1.27-.36c.82-.19,2-.43,3.53-.63a25.93,25.93,0,0,1,11.76,1,16.31,16.31,0,0,1,9,7.5,11.57,11.57,0,0,1,1.18,3.4,6.56,6.56,0,0,1,.11,1A1,1,0,0,1,394.89,103.38Z" style="fill:#263238"></path><path d="M390.43,108.22c.14,0,4.57-.63,4.15,4.6S389,115.9,389,115.75,390.43,108.22,390.43,108.22Z" style="fill:#b78876"></path><path d="M390.77,114s.08.08.23.16a.92.92,0,0,0,.68.07,2.27,2.27,0,0,0,1.21-1.94,3,3,0,0,0-.15-1.33,1,1,0,0,0-.63-.75.47.47,0,0,0-.56.2,1.1,1.1,0,0,0-.08.26s-.11-.1-.05-.31a.59.59,0,0,1,.23-.31.7.7,0,0,1,.52-.1,1.27,1.27,0,0,1,.88.89,3,3,0,0,1,.2,1.49,2.35,2.35,0,0,1-1.51,2.15,1,1,0,0,1-.82-.21C390.77,114.17,390.75,114.05,390.77,114Z" style="fill:#aa6550"></path><g style="opacity:0.30000000000000004"><path d="M370.05,84.23a11.59,11.59,0,0,0-2.91,3.57,13.47,13.47,0,0,0-1.41,4.4,7.87,7.87,0,0,0,.16,4.06,5.21,5.21,0,0,0,2.49,3.06c1.21.6,3.62,0,4.63-.9-3.31-1.65-4.66-3.55-4.85-6.19a12.82,12.82,0,0,1,1.89-8"></path></g><path d="M384.75,91.9a3,3,0,0,1,.59,1.58,9.36,9.36,0,0,1-2.42,7.59c-.74.75-1.31,1.07-1.35,1s.43-.48,1.07-1.27a10,10,0,0,0,1.84-3.43,10.39,10.39,0,0,0,.5-3.86C384.89,92.53,384.67,91.92,384.75,91.9Z" style="fill:#f5f5f5"></path><path d="M389.67,94.28a3.66,3.66,0,0,1,.46,1.65,9.49,9.49,0,0,1-.43,4.12,10.12,10.12,0,0,1-2.09,3.58c-.72.78-1.27,1.14-1.31,1.09a16.77,16.77,0,0,0,2.91-4.83A14.78,14.78,0,0,0,389.67,94.28Z" style="fill:#f5f5f5"></path><path d="M378.27,90.5c.06,0,.43.44.77,1.33a7.74,7.74,0,0,1-.93,7.16c-.56.78-1,1.14-1.08,1.09A12.13,12.13,0,0,0,379,95.46,12,12,0,0,0,378.27,90.5Z" style="fill:#f5f5f5"></path><path d="M372.3,90.59c.05,0,.4.28.56,1a8.75,8.75,0,0,1,.17,2.63,6.12,6.12,0,0,1-1.16,3.51c-.15-.07.49-1.58.64-3.55a14.71,14.71,0,0,0,0-2.52C372.44,91,372.24,90.64,372.3,90.59Z" style="fill:#f5f5f5"></path><path d="M393.74,100.75a5.84,5.84,0,0,1-.37,4,5.76,5.76,0,0,1-2.43,3.14,21.89,21.89,0,0,0,1.95-3.33A22.15,22.15,0,0,0,393.74,100.75Z" style="fill:#f5f5f5"></path><path d="M383.8,84c.05,0,.39.29.63,1a3.81,3.81,0,0,1-.2,2.85A6.31,6.31,0,0,1,382.37,90c-.57.43-.95.64-1,.59s.26-.38.76-.87a7.87,7.87,0,0,0,1.63-2.09,3.91,3.91,0,0,0,.31-2.53C383.94,84.45,383.73,84.06,383.8,84Z" style="fill:#f5f5f5"></path><path d="M376,82.74c.05,0,.39.31.71,1a5.28,5.28,0,0,1-1,5.67c-.53.57-1,.78-1,.73s.29-.37.72-1a5.91,5.91,0,0,0,.9-5.31C376.12,83.19,375.89,82.79,376,82.74Z" style="fill:#f5f5f5"></path><path d="M391,87.28c.06,0,.17.37.14,1a5.09,5.09,0,0,1-2.54,4c-.56.3-.95.36-1,.3a10.24,10.24,0,0,0,2.29-2.26A10.54,10.54,0,0,0,391,87.28Z" style="fill:#f5f5f5"></path><path d="M396.24,92.42c.06,0,.13.37.05,1A4.87,4.87,0,0,1,393.6,97c-.54.25-.91.28-.93.22a11.94,11.94,0,0,0,2.29-2A11.86,11.86,0,0,0,396.24,92.42Z" style="fill:#f5f5f5"></path><g style="opacity:0.30000000000000004"><path d="M388.61,93.43A14,14,0,0,1,394.36,104a4,4,0,0,0,.28,1.68,1.15,1.15,0,0,0,1.42.62,1.43,1.43,0,0,0,.58-.68c1.41-2.72.6-6.2-1.34-8.58a16.33,16.33,0,0,0-7.73-4.75.64.64,0,0,0,.76.81"></path></g><path d="M270,187.78s.12,0,.34,0a3.18,3.18,0,0,1,1,.15,5,5,0,0,1,2.79,2.29,6.07,6.07,0,0,1,.8,2.42,5.19,5.19,0,0,1-.53,2.89,5.84,5.84,0,0,1-5.61,3.15,5.13,5.13,0,0,1-3.12-1.53,6,6,0,0,1-1.62-2.8,5.1,5.1,0,0,1,.06-2.93,5.34,5.34,0,0,1,1.32-2.18,5.16,5.16,0,0,1,3.26-1.55,3.71,3.71,0,0,1,1,0c.22,0,.34.06.34.08s-.48,0-1.3.09a5.15,5.15,0,0,0-3,1.61,4.91,4.91,0,0,0-1.19,4.72,5.32,5.32,0,0,0,4.34,3.94,5.41,5.41,0,0,0,5.13-2.85,5.25,5.25,0,0,0-.17-4.9,4.86,4.86,0,0,0-2.53-2.28C270.44,187.82,270,187.84,270,187.78Z" style="fill:#e0e0e0"></path><path d="M343.42,201.94a3.63,3.63,0,0,1,.43.71,2.26,2.26,0,0,0,1.57,1.28,1.54,1.54,0,0,0,1.22-.53,2.71,2.71,0,0,0,.67-1.48,19.91,19.91,0,0,0,0-4,12.87,12.87,0,0,0-2.46-6.79,15.39,15.39,0,0,0-2.16-2.15s.3.08.75.38a8.42,8.42,0,0,1,1.7,1.54,12.23,12.23,0,0,1,2.68,7,17.89,17.89,0,0,1-.08,4.16,3.17,3.17,0,0,1-.83,1.71,2,2,0,0,1-1.57.59,1.9,1.9,0,0,1-1.19-.7,4,4,0,0,1-.52-.85A2.16,2.16,0,0,1,343.42,201.94Z" style="fill:#e0e0e0"></path><path d="M341.07,197.42a1.66,1.66,0,0,1-.13.33c-.11.23-.25.54-.43.94-.38.82-1,2-1.81,3.53a107.83,107.83,0,0,1-7.87,12.28,189.28,189.28,0,0,1-13.89,16.59,78.47,78.47,0,0,1-9.31,8.78,41.42,41.42,0,0,1-12,6.6,33.52,33.52,0,0,1-6.82,1.58,18.05,18.05,0,0,1-6.8-.25,10.11,10.11,0,0,1-3.08-1.35,28.82,28.82,0,0,1-2.56-2,17.48,17.48,0,0,1-4-4.9,24.57,24.57,0,0,1-2.11-5.61c-.24-.94-.48-1.86-.64-2.79-.08-.46-.17-.92-.26-1.37s-.12-.91-.19-1.36a84.46,84.46,0,0,1-.73-10.06c-.11-6.17.22-11.15.44-14.58.13-1.69.23-3,.3-4q.06-.65.09-1a1.41,1.41,0,0,1,.05-.35,1.55,1.55,0,0,1,0,.35c0,.26,0,.6,0,1,0,.94-.11,2.26-.2,4-.15,3.44-.43,8.41-.28,14.56a86.39,86.39,0,0,0,.8,10c.06.44.13.89.2,1.35s.17.9.26,1.36c.16.91.4,1.83.64,2.76a24.68,24.68,0,0,0,2.09,5.49,17.35,17.35,0,0,0,3.86,4.76c.8.69,1.65,1.36,2.52,2a9.69,9.69,0,0,0,2.92,1.28,17.9,17.9,0,0,0,6.62.23,33.81,33.81,0,0,0,6.71-1.56,41.29,41.29,0,0,0,11.9-6.51,79.07,79.07,0,0,0,9.27-8.71,199.78,199.78,0,0,0,14-16.48,116.44,116.44,0,0,0,8-12.16c.84-1.49,1.47-2.67,1.88-3.48l.48-.91A1.73,1.73,0,0,1,341.07,197.42Z" style="fill:#e0e0e0"></path><path d="M314.31,207.93l6-.87-.52-12.32-4.14.67h-.74c-.75-.24-1.63-.56-2.63-1A8.45,8.45,0,0,1,309.9,193a15.83,15.83,0,0,1-2.21-2.3,2.12,2.12,0,0,1-.11-.21.59.59,0,0,0-.17-.26c-.61-.64-1.85-.51-2,.36s1.05,3.21,3.42,5.19l.11.1L305.74,197c-1.7.39-2.64,2.84.12,3.36a3.39,3.39,0,0,0-.12,2.08c.22.66,1.73,1.35,1.73,1.35s.81,2,1.16,3S314.31,207.93,314.31,207.93Z" style="fill:#b78876"></path><path d="M308.33,196.08s.07,0,.19.06a2.15,2.15,0,0,1,.46.31,7,7,0,0,1,1.28,1.72,12.59,12.59,0,0,1,1.42,7.64,60.36,60.36,0,0,1-2.2,11.4,56.79,56.79,0,0,1-5.78,13c-1.3,2.17-2.67,4.22-4.05,6.15a19.42,19.42,0,0,1-5.1,4.65,22.13,22.13,0,0,1-5.69,2.55,20.33,20.33,0,0,1-5.4.68c-.83,0-1.62-.1-2.36-.21s-1.44-.25-2.07-.46-1.21-.39-1.74-.58l-1.4-.65a6.3,6.3,0,0,1-1.08-.6l-.76-.48a4.29,4.29,0,0,1-.61-.42,3.45,3.45,0,0,1,.66.33l.79.44a6.51,6.51,0,0,0,1.09.54l1.4.61c.53.18,1.11.34,1.73.53s1.32.26,2,.41,1.5.14,2.32.17a19.92,19.92,0,0,0,5.27-.73,21.46,21.46,0,0,0,5.55-2.54,18.57,18.57,0,0,0,4.94-4.54c1.38-1.92,2.74-4,4-6.12A57.11,57.11,0,0,0,309,217.08a61.9,61.9,0,0,0,2.29-11.31,12.54,12.54,0,0,0-1.23-7.5,7.43,7.43,0,0,0-1.17-1.74A3.61,3.61,0,0,0,308.33,196.08Z" style="fill:#263238"></path><path d="M304.55,197.63l6-.43a4.37,4.37,0,0,1,2,.18,1.49,1.49,0,0,1,.94,1.65,1.46,1.46,0,0,1-.91.89,4.07,4.07,0,0,1-1.3.21l-4.6.26" style="fill:#b78876"></path><path d="M305.74,200.58l6-.43a4.39,4.39,0,0,1,2,.19,1.47,1.47,0,0,1,.94,1.64,1.44,1.44,0,0,1-.91.89,4.07,4.07,0,0,1-1.3.21l-4.61.26" style="fill:#b78876"></path><path d="M306.15,200.61a13.44,13.44,0,0,1,2.6-.43c.81-.09,1.77-.21,2.84-.31a2.26,2.26,0,0,0,1.4-.48.91.91,0,0,0,.07-1.29,1.86,1.86,0,0,0-1.38-.67,12.94,12.94,0,0,0-1.65,0l-2.85.14a13.59,13.59,0,0,1-2.63,0,12.22,12.22,0,0,1,2.61-.37L310,197a10.51,10.51,0,0,1,1.72-.07,2.32,2.32,0,0,1,1.76.86,1.62,1.62,0,0,1,.33,1,1.38,1.38,0,0,1-.47.95,2.68,2.68,0,0,1-1.72.59l-2.85.2A13.55,13.55,0,0,1,306.15,200.61Z" style="fill:#aa6550"></path><path d="M307.47,203.82c0-.06,1-.19,2.57-.53a21.35,21.35,0,0,1,2.85-.41,2.37,2.37,0,0,0,1.41-.48.92.92,0,0,0,.08-1.29,1.81,1.81,0,0,0-1.39-.67,11.2,11.2,0,0,0-1.64,0l-2.85.15a14.08,14.08,0,0,1-2.64,0,13.07,13.07,0,0,1,2.61-.37l2.84-.26a11.88,11.88,0,0,1,1.72-.07,2.3,2.3,0,0,1,1.77.87,1.55,1.55,0,0,1,.32,1,1.39,1.39,0,0,1-.48.94,2.67,2.67,0,0,1-1.72.58c-1.07,0-2,.2-2.82.3A8.13,8.13,0,0,1,307.47,203.82Z" style="fill:#aa6550"></path><path d="M307.35,203.65l6-.43a4.37,4.37,0,0,1,2,.18,1.49,1.49,0,0,1,.94,1.65,1.46,1.46,0,0,1-.91.89,4.37,4.37,0,0,1-1.3.21l-4.6.26" style="fill:#b78876"></path><path d="M308.61,206.66a13.8,13.8,0,0,1,2.67-.4l2.91-.3a3.13,3.13,0,0,0,1.54-.36.92.92,0,0,0,.36-1.27,1.71,1.71,0,0,0-1.32-.81,9.43,9.43,0,0,0-1.68,0l-2.92.15a14.33,14.33,0,0,1-2.7,0,13.23,13.23,0,0,1,2.67-.38l2.92-.26a8.56,8.56,0,0,1,1.77,0,2.16,2.16,0,0,1,1.71,1.06,1.48,1.48,0,0,1,.14,1.11,1.62,1.62,0,0,1-.67.84,3.58,3.58,0,0,1-1.79.41l-2.92.18A14,14,0,0,1,308.61,206.66Z" style="fill:#aa6550"></path><path d="M313.85,207.94a29,29,0,0,0,1.69,2.76c.28.38.67.89,1.06.73a.84.84,0,0,0,.39-.57,3.24,3.24,0,0,0,.11-.91,41.66,41.66,0,0,0,0-4.31,43.93,43.93,0,0,0-1.16-7.73c-.47-2-.86-3.14-.79-3.17a2.62,2.62,0,0,1,.38.8c.21.53.48,1.3.76,2.27a35.86,35.86,0,0,1,1.33,7.8,35.09,35.09,0,0,1,0,4.36,3.6,3.6,0,0,1-.15,1,1.26,1.26,0,0,1-.68.84,1,1,0,0,1-1-.26,4.61,4.61,0,0,1-.52-.65,10.53,10.53,0,0,1-1.15-2.13A2.53,2.53,0,0,1,313.85,207.94Z" style="fill:#263238"></path></g></svg>